<svg width="88" height="28" viewBox="0 0 88 28" fill="none" xmlns="http://www.w3.org/2000/svg">
<rect x="0.5" y="0.5" width="87" height="27" rx="1.5" fill="#E3E3E3" stroke="#AAAAAA"/>
<path d="M10.992 9.4H19.04V10.376H10.992V9.4ZM10.784 18.6L10.64 17.592C13.248 17.592 16.768 17.56 19.744 17.192L19.808 18.072C16.784 18.568 13.328 18.6 10.784 18.6ZM12.608 10.136H13.76V17.864H12.608V10.136ZM16.272 10.136H17.424V17.864H16.272V10.136ZM20.656 7.816H21.856V22.216H20.656V7.816ZM21.568 13.624H24.256V14.632H21.568V13.624ZM30.5828 8.36C32.7268 8.36 34.2788 9.656 34.2788 11.544C34.2788 13.416 32.7268 14.712 30.5828 14.712C28.4388 14.712 26.8708 13.416 26.8708 11.544C26.8708 9.656 28.4388 8.36 30.5828 8.36ZM30.5828 9.336C29.1268 9.336 28.0388 10.264 28.0388 11.544C28.0388 12.824 29.1268 13.736 30.5828 13.736C32.0388 13.736 33.1268 12.824 33.1268 11.544C33.1268 10.264 32.0388 9.336 30.5828 9.336ZM37.1268 7.816H38.3108V15.224H37.1268V7.816ZM29.0468 15.944H38.3108V19.368H30.2468V21.608H29.0948V18.472H37.1428V16.904H29.0468V15.944ZM29.0948 21.064H38.8228V22.024H29.0948V21.064ZM54.208 11.256H57.888V12.264H54.208V11.256ZM50.496 8.68H51.456V10.488C51.456 13.256 49.808 15.56 47.472 16.52L46.848 15.56C48.96 14.76 50.496 12.728 50.496 10.488V8.68ZM50.704 8.68H51.664V10.552C51.664 12.584 53.152 14.488 55.2 15.256L54.56 16.168C52.32 15.272 50.704 13.096 50.704 10.552V8.68ZM57.44 7.832H58.624V18.616H57.44V7.832ZM49.424 20.904H58.976V21.896H49.424V20.904ZM49.424 17.4H50.608V21.336H49.424V17.4ZM63.1748 14.76H64.0868C66.3748 14.76 67.7188 14.696 69.3188 14.376L69.4468 15.352C67.7828 15.688 66.4227 15.752 64.0868 15.752H63.1748V14.76ZM63.1748 8.872H68.7268V9.848H64.3268V15.288H63.1748V8.872ZM63.9588 11.752H68.5668V12.696H63.9588V11.752ZM73.5108 7.816H74.6468V16.536H73.5108V7.816ZM71.0788 11.608H73.8788V12.6H71.0788V11.608ZM70.3268 8.088H71.4468V16.456H70.3268V8.088ZM65.0308 17.32H74.6468V22.216H73.4788V18.296H65.0308V17.32Z" fill="black"/>
</svg>
