<svg width="70" height="37" viewBox="0 0 70 37" fill="none" xmlns="http://www.w3.org/2000/svg">
<path d="M48 17L53.5 22L59 17" stroke="#737373" stroke-linecap="round"/>
<path d="M18.448 15.824H20.744V12.45H22.186V21.69H20.744V17.014H18.448V15.824ZM19.232 18.778L18.518 19.898C17.118 19.422 16.096 18.428 15.564 17.182C15.004 18.554 13.94 19.66 12.442 20.178L11.7 19.044C13.66 18.358 14.808 16.692 14.808 14.984V14.55H12.134V13.388H18.896V14.55H16.264V14.984C16.264 16.538 17.342 18.12 19.232 18.778ZM15.438 23.664H22.508V24.84H13.996V20.892H15.438V23.664ZM29.3869 15.852V16.3C29.3869 18.274 30.2409 20.29 31.9769 21.228L31.1789 22.306C29.9889 21.662 29.1769 20.5 28.7149 19.128C28.2669 20.612 27.4689 21.886 26.2649 22.586L25.4389 21.494C27.1749 20.472 28.0149 18.316 28.0149 16.3V15.852H25.8309V14.662H28.0149V12.87H29.3869V14.662H31.5569V15.852H29.3869ZM32.4529 17.336V12.688H33.8109V24.462H32.4529V18.512H30.7449V17.336H32.4529ZM35.0009 12.436H36.3729V25.078H35.0009V12.436Z" fill="#737373"/>
<rect x="0.5" y="0.5" width="69" height="36" stroke="#E3E3E3"/>
</svg>
