<svg width="117" height="37" viewBox="0 0 117 37" fill="none" xmlns="http://www.w3.org/2000/svg">
<rect width="117" height="37" fill="#FF4A57"/>
<path d="M26.421 12.436V18.918H24.965V12.436H26.421ZM23.691 17.504L22.991 18.638C21.535 18.162 20.471 17.196 19.897 15.95C19.323 17.308 18.245 18.358 16.719 18.876L16.005 17.728C18.007 17.07 19.141 15.432 19.141 13.724V12.772H20.611V13.724C20.611 15.362 21.745 16.902 23.691 17.504ZM19.575 23.832H26.799V24.966H18.161V21.676H24.993V20.64H18.133V19.52H26.421V22.726H19.575V23.832ZM36.5619 17.854L35.1479 17.7C35.3999 16.342 35.4419 15.348 35.4559 14.564H30.5139V13.388H36.8699V14.116C36.8699 14.97 36.8699 16.216 36.5619 17.854ZM37.6119 18.484L37.7099 19.534C35.0779 19.996 32.0959 20.066 29.8979 20.066L29.7439 18.89C30.4999 18.89 31.3679 18.89 32.2639 18.862V16.272H33.6919V18.82C35.0079 18.764 36.3659 18.68 37.6119 18.484ZM33.1039 21.088V23.664H40.2439V24.84H31.6479V21.088H33.1039ZM39.8379 16.44H41.5179V17.63H39.8379V21.928H38.3819V12.436H39.8379V16.44ZM51.1128 17.826L51.2668 19.002C49.3628 19.338 47.7108 19.408 45.2888 19.408H44.2668V15.628H48.5508V14.27H44.2388V13.094H49.9788V16.734H45.6808V18.232C47.8508 18.218 49.3768 18.148 51.1128 17.826ZM46.9688 21.69V23.776H52.2188V21.69H46.9688ZM45.5548 24.924V20.556H53.6328V24.924H45.5548ZM55.4248 15.572V16.762H53.6328V19.968H52.1908V12.45H53.6328V15.572H55.4248ZM58.1737 13.346H63.1297C63.1297 16.454 61.5477 18.666 58.2997 19.968L57.6137 18.932C60.1057 17.952 61.4077 16.454 61.6457 14.508H58.1737V13.346ZM59.7417 21.592V20.43H68.3377V25.092H66.8957V21.592H59.7417ZM66.9657 12.436H68.3377V19.856H66.9657V16.678H65.5657V19.8H64.2077V12.674H65.5657V15.502H66.9657V12.436ZM85.7872 16.132V17.294H77.0932V12.87H85.7032V14.032H78.5212V16.132H85.7872ZM81.3492 23.958C83.1972 23.958 84.2472 23.552 84.2472 22.768C84.2472 21.998 83.1972 21.578 81.3492 21.578C79.5012 21.578 78.4652 21.998 78.4652 22.768C78.4652 23.552 79.5012 23.958 81.3492 23.958ZM81.3492 20.472C84.0652 20.472 85.7032 21.312 85.7032 22.768C85.7032 24.238 84.0652 25.078 81.3492 25.078C78.6472 25.078 76.9952 24.238 76.9952 22.768C76.9952 21.312 78.6472 20.472 81.3492 20.472ZM75.6792 18.344H87.1032V19.534H75.6792V18.344ZM90.8181 22.488V21.326H99.6241V25.008H98.1821V22.488H90.8181ZM95.9841 19.31H100.996V20.472H89.5301V19.31H94.5421V18.162H91.0001V14.9H98.1261V13.836H90.9721V12.73H99.5541V15.936H92.4141V17.056H99.8061V18.162H95.9841V19.31Z" fill="white"/>
</svg>
