<svg width="121" height="32" viewBox="0 0 121 32" fill="none" xmlns="http://www.w3.org/2000/svg">
<rect x="0.5" y="0.5" width="120" height="31" fill="white"/>
<path d="M23.872 16.712H18V19.336H22.272V24.168H20.96V20.392H12.224V19.336H16.688V16.712H10.848V15.64H20.512C20.896 13.912 20.896 12.648 20.896 11.576H12.512V10.52H22.192V11.56C22.192 12.632 22.192 13.944 21.84 15.64H23.872V16.712ZM28.5828 11.576V19.32C29.9588 19.304 31.4788 19.208 33.1908 18.872L33.3188 20.008C31.3828 20.376 29.7348 20.456 28.1828 20.456H27.2708V11.576H28.5828ZM37.4788 9.832H38.7428V24.168H37.4788V16.76H35.4468V23.448H34.2148V10.152H35.4468V15.672H37.4788V9.832Z" fill="#AAAAAA"/>
<path d="M110 13.9045L105 19L100 13.9045L100.888 13L105 17.1911L109.113 13L110 13.9045Z" fill="#AAAAAA"/>
<rect x="0.5" y="0.5" width="120" height="31" stroke="#AAAAAA"/>
</svg>
