<svg width="67" height="33" viewBox="0 0 67 33" fill="none" xmlns="http://www.w3.org/2000/svg">
<rect x="1" y="1" width="65" height="31" fill="white" stroke="#AAAAAA" stroke-width="2"/>
<path d="M21.9411 16.75L21.3531 15.644C23.2011 15.238 24.2791 14.146 24.2931 12.928H21.6471V11.794H24.2791V10.464H25.7351V11.794H28.3811V12.928H25.7351C25.7491 14.076 26.8131 15.07 28.6331 15.448L28.0591 16.568C26.6171 16.26 25.5951 15.56 25.0351 14.65C24.4891 15.658 23.4391 16.414 21.9411 16.75ZM29.0391 17.086L29.1231 18.15C28.0171 18.346 26.8551 18.486 25.7351 18.542V22.714H24.2931V18.626C23.1171 18.668 22.0111 18.682 21.0171 18.682L20.8351 17.492C23.1871 17.492 26.3231 17.464 29.0391 17.086ZM29.8511 10.436H31.2931V23.092H29.8511V10.436ZM45.676 16.414L45.074 17.618C43.002 17.212 41.21 15.952 40.398 14.272C39.558 15.952 37.766 17.212 35.708 17.618L35.092 16.414C37.598 15.994 39.628 14.104 39.628 12.158V11.206H41.154V12.158C41.154 14.118 43.184 15.994 45.676 16.414ZM41.098 20.32H46.166V21.51H34.714V20.32H39.656V17.366H41.098V20.32Z" fill="#737373"/>
</svg>
