<svg width="70" height="32" viewBox="0 0 70 32" fill="none" xmlns="http://www.w3.org/2000/svg">
<rect width="70" height="32" fill="#737373"/>
<path d="M27.5671 10.66H29.2051V11.262C29.2051 13.754 27.2451 15.868 23.8431 16.372L23.1151 14.874C26.0971 14.482 27.5671 12.788 27.5671 11.262V10.66ZM27.9171 10.66H29.5411V11.262C29.5411 12.774 31.0251 14.482 33.9931 14.874L33.2791 16.372C29.8771 15.868 27.9171 13.754 27.9171 11.262V10.66ZM27.5811 18.5H29.4291V23.246H27.5811V18.5ZM22.6951 17.324H34.4131V18.836H22.6951V17.324ZM42.588 13.418H45.052V14.93H42.588V13.418ZM44.548 10.282H46.41V17.982H44.548V10.282ZM42.014 18.262C44.758 18.262 46.452 19.2 46.452 20.768C46.452 22.35 44.758 23.26 42.014 23.26C39.27 23.26 37.576 22.35 37.576 20.768C37.576 19.2 39.27 18.262 42.014 18.262ZM42.014 19.676C40.334 19.676 39.438 20.026 39.438 20.768C39.438 21.496 40.334 21.846 42.014 21.846C43.708 21.846 44.604 21.496 44.604 20.768C44.604 20.026 43.708 19.676 42.014 19.676ZM38.556 11.584H40.068V12.396C40.068 14.874 38.92 17.142 36.442 17.982L35.49 16.512C37.632 15.784 38.556 14.062 38.556 12.396V11.584ZM38.948 11.584H40.446V12.396C40.446 13.922 41.328 15.504 43.372 16.19L42.462 17.66C40.054 16.862 38.948 14.706 38.948 12.396V11.584ZM35.994 11.066H42.966V12.55H35.994V11.066Z" fill="white"/>
</svg>
