<svg width="87" height="87" viewBox="0 0 87 87" fill="none" xmlns="http://www.w3.org/2000/svg">
<rect x="1" y="1" width="85" height="85" rx="42.5" fill="white" stroke="#737373" stroke-width="2"/>
<path d="M55.38 23H31.62C31.1903 23 30.7783 23.1718 30.4745 23.4777C30.1707 23.7835 30 24.1983 30 24.6309V42.027C30 42.4595 30.1707 42.8743 30.4745 43.1802C30.7783 43.486 31.1903 43.6578 31.62 43.6578H39.6485C39.7417 43.6578 39.8333 43.6821 39.9145 43.7283C39.9956 43.7745 40.0635 43.841 40.1115 43.9215L42.1082 47.2104C42.2522 47.4513 42.4557 47.6506 42.6989 47.789C42.9421 47.9273 43.2166 48 43.496 48C43.7753 48 44.0498 47.9273 44.293 47.789C44.5362 47.6506 44.7397 47.4513 44.8838 47.2104L46.8858 43.9133C46.9338 43.8329 47.0017 43.7663 47.0828 43.7201C47.164 43.6739 47.2556 43.6497 47.3489 43.6497H55.38C55.8097 43.6497 56.2217 43.4779 56.5255 43.172C56.8293 42.8662 57 42.4513 57 42.0188V24.6309C57 24.1983 56.8293 23.7835 56.5255 23.4777C56.2217 23.1718 55.8097 23 55.38 23ZM55.92 42.027C55.92 42.1711 55.8631 42.3094 55.7618 42.4114C55.6606 42.5133 55.5232 42.5706 55.38 42.5706H47.3516C47.0726 42.5707 46.7984 42.6433 46.5555 42.7814C46.3126 42.9195 46.1092 43.1184 45.9651 43.3588L43.963 46.6559C43.9152 46.7371 43.8473 46.8043 43.7659 46.8509C43.6844 46.8976 43.5923 46.9222 43.4987 46.9222C43.405 46.9222 43.3129 46.8976 43.2314 46.8509C43.15 46.8043 43.0821 46.7371 43.0343 46.6559L41.0363 43.3643C40.8927 43.1226 40.6894 42.9225 40.4462 42.7834C40.203 42.6443 39.9282 42.571 39.6485 42.5706H31.62C31.4768 42.5706 31.3394 42.5133 31.2382 42.4114C31.1369 42.3094 31.08 42.1711 31.08 42.027V24.6309C31.08 24.4867 31.1369 24.3484 31.2382 24.2465C31.3394 24.1445 31.4768 24.0873 31.62 24.0873H55.38C55.5232 24.0873 55.6606 24.1445 55.7618 24.2465C55.8631 24.3484 55.92 24.4867 55.92 24.6309V42.027ZM44.58 33.3289C44.58 33.544 44.5167 33.7542 44.398 33.933C44.2793 34.1118 44.1106 34.2511 43.9133 34.3334C43.716 34.4157 43.4988 34.4372 43.2893 34.3953C43.0798 34.3533 42.8874 34.2498 42.7363 34.0977C42.5853 33.9457 42.4824 33.7519 42.4408 33.541C42.3991 33.3301 42.4205 33.1115 42.5022 32.9128C42.584 32.7142 42.7224 32.5444 42.9 32.4249C43.0776 32.3054 43.2864 32.2417 43.5 32.2417C43.7864 32.2417 44.0611 32.3562 44.2637 32.5601C44.4662 32.764 44.58 33.0406 44.58 33.3289ZM38.64 33.3289C38.64 33.544 38.5767 33.7542 38.458 33.933C38.3393 34.1118 38.1706 34.2511 37.9733 34.3334C37.776 34.4157 37.5588 34.4372 37.3493 34.3953C37.1398 34.3533 36.9474 34.2498 36.7963 34.0977C36.6453 33.9457 36.5424 33.7519 36.5008 33.541C36.4591 33.3301 36.4805 33.1115 36.5622 32.9128C36.644 32.7142 36.7824 32.5444 36.96 32.4249C37.1376 32.3054 37.3464 32.2417 37.56 32.2417C37.8464 32.2417 38.1211 32.3562 38.3237 32.5601C38.5262 32.764 38.64 33.0406 38.64 33.3289ZM50.52 33.3289C50.52 33.544 50.4567 33.7542 50.338 33.933C50.2193 34.1118 50.0506 34.2511 49.8533 34.3334C49.656 34.4157 49.4388 34.4372 49.2293 34.3953C49.0198 34.3533 48.8274 34.2498 48.6763 34.0977C48.5253 33.9457 48.4224 33.7519 48.3808 33.541C48.3391 33.3301 48.3605 33.1115 48.4422 32.9128C48.524 32.7142 48.6624 32.5444 48.84 32.4249C49.0176 32.3054 49.2264 32.2417 49.44 32.2417C49.7264 32.2417 50.0011 32.3562 50.2037 32.5601C50.4062 32.764 50.52 33.0406 50.52 33.3289Z" fill="#737373"/>
<path d="M22.8982 60.36H31.0882V61.04H22.8982V60.36ZM26.6382 60.78H27.4682V62.86H26.6382V60.78ZM23.9482 56.16H30.0282V59.34H23.9482V56.16ZM29.2082 56.83H24.7582V58.67H29.2082V56.83ZM23.9382 63.9H30.1782V64.58H23.9382V63.9ZM23.9382 61.99H24.7582V64.14H23.9382V61.99ZM36.0374 56.39C37.4474 56.39 38.4574 57.26 38.4574 58.52C38.4574 59.79 37.4474 60.66 36.0374 60.66C34.6274 60.66 33.6074 59.79 33.6074 58.52C33.6074 57.26 34.6274 56.39 36.0374 56.39ZM36.0374 57.11C35.0974 57.11 34.4174 57.68 34.4174 58.52C34.4174 59.36 35.0974 59.94 36.0374 59.94C36.9674 59.94 37.6474 59.36 37.6474 58.52C37.6474 57.68 36.9674 57.11 36.0374 57.11ZM39.6374 55.73H40.4674V64.79H39.6374V55.73ZM33.2674 62.81L33.1474 62.12C34.7974 62.12 37.0774 62.11 39.0474 61.8L39.1174 62.41C37.0874 62.8 34.8774 62.81 33.2674 62.81ZM50.203 60.26H51.033V61.84H50.203V60.26ZM46.533 59.97H54.703V60.64H46.533V59.97ZM50.613 61.59C52.553 61.59 53.713 62.16 53.713 63.18C53.713 64.19 52.553 64.76 50.613 64.76C48.673 64.76 47.513 64.19 47.513 63.18C47.513 62.16 48.673 61.59 50.613 61.59ZM50.613 62.23C49.203 62.23 48.353 62.57 48.353 63.18C48.353 63.78 49.203 64.12 50.613 64.12C52.033 64.12 52.873 63.78 52.873 63.18C52.873 62.57 52.033 62.23 50.613 62.23ZM50.083 56.48H50.823V56.75C50.823 58.21 49.163 59.19 47.293 59.42L46.993 58.76C48.613 58.59 50.083 57.78 50.083 56.75V56.48ZM50.433 56.48H51.163V56.75C51.163 57.78 52.633 58.59 54.253 58.76L53.953 59.42C52.083 59.19 50.433 58.21 50.433 56.75V56.48ZM47.283 56.15H53.973V56.82H47.283V56.15ZM57.6222 64.14C57.2622 64.14 56.9722 63.85 56.9722 63.44C56.9722 63.02 57.2622 62.74 57.6222 62.74C57.9922 62.74 58.2922 63.02 58.2922 63.44C58.2922 63.85 57.9922 64.14 57.6222 64.14ZM61.4054 64.14C61.0454 64.14 60.7554 63.85 60.7554 63.44C60.7554 63.02 61.0454 62.74 61.4054 62.74C61.7754 62.74 62.0754 63.02 62.0754 63.44C62.0754 63.85 61.7754 64.14 61.4054 64.14ZM65.1886 64.14C64.8286 64.14 64.5386 63.85 64.5386 63.44C64.5386 63.02 64.8286 62.74 65.1886 62.74C65.5586 62.74 65.8586 63.02 65.8586 63.44C65.8586 63.85 65.5586 64.14 65.1886 64.14Z" fill="#737373"/>
</svg>
