<svg width="87" height="87" viewBox="0 0 87 87" fill="none" xmlns="http://www.w3.org/2000/svg">
<rect x="1" y="1" width="85" height="85" rx="42.5" fill="white" stroke="#737373" stroke-width="2"/>
<path d="M55.38 23H31.62C31.1903 23 30.7783 23.1718 30.4745 23.4777C30.1707 23.7835 30 24.1983 30 24.6309V42.027C30 42.4595 30.1707 42.8743 30.4745 43.1802C30.7783 43.486 31.1903 43.6578 31.62 43.6578H39.6485C39.7417 43.6578 39.8333 43.6821 39.9145 43.7283C39.9956 43.7745 40.0635 43.841 40.1115 43.9215L42.1082 47.2104C42.2522 47.4513 42.4557 47.6506 42.6989 47.789C42.9421 47.9273 43.2166 48 43.496 48C43.7753 48 44.0498 47.9273 44.293 47.789C44.5362 47.6506 44.7397 47.4513 44.8838 47.2104L46.8858 43.9133C46.9338 43.8329 47.0017 43.7663 47.0828 43.7201C47.164 43.6739 47.2556 43.6497 47.3489 43.6497H55.38C55.8097 43.6497 56.2217 43.4779 56.5255 43.172C56.8293 42.8662 57 42.4513 57 42.0188V24.6309C57 24.1983 56.8293 23.7835 56.5255 23.4777C56.2217 23.1718 55.8097 23 55.38 23ZM55.92 42.027C55.92 42.1711 55.8631 42.3094 55.7618 42.4114C55.6606 42.5133 55.5232 42.5706 55.38 42.5706H47.3516C47.0726 42.5707 46.7984 42.6433 46.5555 42.7814C46.3126 42.9195 46.1092 43.1184 45.9651 43.3588L43.963 46.6559C43.9152 46.7371 43.8473 46.8043 43.7659 46.8509C43.6844 46.8976 43.5923 46.9222 43.4987 46.9222C43.405 46.9222 43.3129 46.8976 43.2314 46.8509C43.15 46.8043 43.0821 46.7371 43.0343 46.6559L41.0363 43.3643C40.8927 43.1226 40.6894 42.9225 40.4462 42.7834C40.203 42.6443 39.9282 42.571 39.6485 42.5706H31.62C31.4768 42.5706 31.3394 42.5133 31.2382 42.4114C31.1369 42.3094 31.08 42.1711 31.08 42.027V24.6309C31.08 24.4867 31.1369 24.3484 31.2382 24.2465C31.3394 24.1445 31.4768 24.0873 31.62 24.0873H55.38C55.5232 24.0873 55.6606 24.1445 55.7618 24.2465C55.8631 24.3484 55.92 24.4867 55.92 24.6309V42.027ZM44.58 33.3289C44.58 33.544 44.5167 33.7542 44.398 33.933C44.2793 34.1118 44.1106 34.2511 43.9133 34.3334C43.716 34.4157 43.4988 34.4372 43.2893 34.3953C43.0798 34.3533 42.8874 34.2498 42.7363 34.0977C42.5853 33.9457 42.4824 33.7519 42.4408 33.541C42.3991 33.3301 42.4205 33.1115 42.5022 32.9128C42.584 32.7142 42.7224 32.5444 42.9 32.4249C43.0776 32.3054 43.2864 32.2417 43.5 32.2417C43.7864 32.2417 44.0611 32.3562 44.2637 32.5601C44.4662 32.764 44.58 33.0406 44.58 33.3289ZM38.64 33.3289C38.64 33.544 38.5767 33.7542 38.458 33.933C38.3393 34.1118 38.1706 34.2511 37.9733 34.3334C37.776 34.4157 37.5588 34.4372 37.3493 34.3953C37.1398 34.3533 36.9474 34.2498 36.7963 34.0977C36.6453 33.9457 36.5424 33.7519 36.5008 33.541C36.4591 33.3301 36.4805 33.1115 36.5622 32.9128C36.644 32.7142 36.7824 32.5444 36.96 32.4249C37.1376 32.3054 37.3464 32.2417 37.56 32.2417C37.8464 32.2417 38.1211 32.3562 38.3237 32.5601C38.5262 32.764 38.64 33.0406 38.64 33.3289ZM50.52 33.3289C50.52 33.544 50.4567 33.7542 50.338 33.933C50.2193 34.1118 50.0506 34.2511 49.8533 34.3334C49.656 34.4157 49.4388 34.4372 49.2293 34.3953C49.0198 34.3533 48.8274 34.2498 48.6763 34.0977C48.5253 33.9457 48.4224 33.7519 48.3808 33.541C48.3391 33.3301 48.3605 33.1115 48.4422 32.9128C48.524 32.7142 48.6624 32.5444 48.84 32.4249C49.0176 32.3054 49.2264 32.2417 49.44 32.2417C49.7264 32.2417 50.0011 32.3562 50.2037 32.5601C50.4062 32.764 50.52 33.0406 50.52 33.3289Z" fill="#737373"/>
<path d="M22.032 58.07C23.382 58.07 24.372 58.89 24.372 60.08C24.372 61.26 23.382 62.08 22.032 62.08C20.692 62.08 19.702 61.26 19.702 60.08C19.702 58.89 20.692 58.07 22.032 58.07ZM22.032 58.75C21.162 58.75 20.502 59.3 20.502 60.08C20.502 60.86 21.162 61.4 22.032 61.4C22.912 61.4 23.562 60.86 23.562 60.08C23.562 59.3 22.912 58.75 22.032 58.75ZM26.072 57.74H26.912V62.37H26.072V57.74ZM21.062 62.81H26.912V65.01H21.892V66.37H21.082V64.39H26.092V63.48H21.062V62.81ZM21.082 66H27.212V66.66H21.082V66ZM36.5712 57.74H37.3712V66.78H36.5712V57.74ZM35.0412 61.36H36.7812V62.05H35.0412V61.36ZM34.5212 57.94H35.3012V66.32H34.5212V57.94ZM30.0212 63.86H30.6112C31.9312 63.86 32.8312 63.81 33.8812 63.59L33.9612 64.28C32.8812 64.51 31.9712 64.55 30.6112 64.55H30.0212V63.86ZM30.0212 58.84H33.3812V59.52H30.8412V64.17H30.0212V58.84ZM42.4304 58.07C43.7804 58.07 44.7704 58.89 44.7704 60.08C44.7704 61.26 43.7804 62.08 42.4304 62.08C41.0904 62.08 40.1004 61.26 40.1004 60.08C40.1004 58.89 41.0904 58.07 42.4304 58.07ZM42.4304 58.75C41.5604 58.75 40.9004 59.3 40.9004 60.08C40.9004 60.86 41.5604 61.4 42.4304 61.4C43.3104 61.4 43.9604 60.86 43.9604 60.08C43.9604 59.3 43.3104 58.75 42.4304 58.75ZM46.4704 57.74H47.3104V62.37H46.4704V57.74ZM41.4604 62.81H47.3104V65.01H42.2904V66.37H41.4804V64.39H46.4904V63.48H41.4604V62.81ZM41.4804 66H47.6104V66.66H41.4804V66ZM50.0896 62.36H58.2796V63.04H50.0896V62.36ZM53.8296 62.78H54.6596V64.86H53.8296V62.78ZM51.1396 58.16H57.2196V61.34H51.1396V58.16ZM56.3996 58.83H51.9496V60.67H56.3996V58.83ZM51.1296 65.9H57.3696V66.58H51.1296V65.9ZM51.1296 63.99H51.9496V66.14H51.1296V63.99ZM63.2288 58.39C64.6388 58.39 65.6488 59.26 65.6488 60.52C65.6488 61.79 64.6388 62.66 63.2288 62.66C61.8188 62.66 60.7988 61.79 60.7988 60.52C60.7988 59.26 61.8188 58.39 63.2288 58.39ZM63.2288 59.11C62.2888 59.11 61.6088 59.68 61.6088 60.52C61.6088 61.36 62.2888 61.94 63.2288 61.94C64.1588 61.94 64.8388 61.36 64.8388 60.52C64.8388 59.68 64.1588 59.11 63.2288 59.11ZM66.8288 57.73H67.6588V66.79H66.8288V57.73ZM60.4588 64.81L60.3388 64.12C61.9888 64.12 64.2688 64.11 66.2388 63.8L66.3088 64.41C64.2788 64.8 62.0688 64.81 60.4588 64.81Z" fill="#737373"/>
</svg>
