<svg width="238" height="40" viewBox="0 0 238 40" fill="none" xmlns="http://www.w3.org/2000/svg">
<path d="M16.586 18.838H19.316V20.014H16.586V18.838ZM16.502 22.044H19.274V23.22H16.502V22.044ZM21.164 15.366H22.578V28.162H21.164V15.366ZM18.574 15.674H19.946V27.546H18.574V15.674ZM15.704 16.934H17.118C17.118 20.406 15.886 23.374 12.386 25.446L11.546 24.41C14.5 22.632 15.704 20.266 15.704 17.214V16.934ZM12.19 16.934H16.236V18.124H12.19V16.934ZM31.4869 16.794H34.9589V17.942H31.4869V16.794ZM31.4869 19.412H34.9589V20.56H31.4869V19.412ZM29.0229 15.758C30.9409 15.758 32.3549 16.976 32.3549 18.698C32.3549 20.406 30.9409 21.624 29.0229 21.624C27.1049 21.624 25.6909 20.406 25.6909 18.698C25.6909 16.976 27.1049 15.758 29.0229 15.758ZM29.0229 16.962C27.9029 16.962 27.0909 17.648 27.0909 18.698C27.0909 19.748 27.9029 20.434 29.0229 20.434C30.1429 20.434 30.9549 19.748 30.9549 18.698C30.9549 17.648 30.1429 16.962 29.0229 16.962ZM34.6509 15.366H36.1069V21.848H34.6509V15.366ZM27.7769 22.45H36.1069V25.712H29.2469V27.476H27.8049V24.634H34.6649V23.598H27.7769V22.45ZM27.8049 26.846H36.5409V28.008H27.8049V26.846ZM42.4118 16.416H43.6018V18.516C43.6018 21.498 42.2718 24.354 40.0738 25.474L39.1778 24.298C41.1658 23.332 42.4118 20.882 42.4118 18.516V16.416ZM42.6918 16.416H43.8678V18.516C43.8678 20.798 45.0718 23.122 46.9898 24.074L46.0938 25.236C43.9658 24.13 42.6918 21.4 42.6918 18.516V16.416ZM47.8438 15.366H49.3138V28.162H47.8438V15.366ZM48.9778 20.434H51.3018V21.652H48.9778V20.434ZM65.8673 15.366H67.3373V28.162H65.8673V15.366ZM67.0013 20.28H69.3253V21.512H67.0013V20.28ZM57.8733 16.416H59.3293V19.678H62.4933V16.416H63.9493V25.138H57.8733V16.416ZM59.3293 20.826V23.948H62.4933V20.826H59.3293ZM71.3042 25.46H82.8962V26.664H71.3042V25.46ZM76.3442 22.856H77.8002V25.95H76.3442V22.856ZM72.6622 16.262H81.5102V20.308H74.1462V22.688H72.6902V19.146H80.0542V17.438H72.6622V16.262ZM72.6902 22.086H81.8042V23.276H72.6902V22.086ZM93.6251 15.352H95.0951V28.148H93.6251V15.352ZM94.7031 20.42H97.0131V21.624H94.7031V20.42ZM90.3071 16.71H91.7491C91.7491 20.434 90.1671 23.724 85.9811 25.824L85.1551 24.704C88.6131 22.94 90.3071 20.378 90.3071 16.962V16.71ZM85.7991 16.71H91.0631V17.9H85.7991V16.71ZM108.148 15.366H109.618V28.162H108.148V15.366ZM104.396 16.724H105.838C105.838 20.518 104.326 23.738 99.93 25.88L99.16 24.704C102.842 22.926 104.396 20.392 104.396 16.976V16.724ZM99.79 16.724H105.054V17.9H99.79V16.724Z" fill="#737373"/>
<path d="M206.575 18.275L208.1 16.75L215.975 24.625L223.825 16.75L225.375 18.275L215.975 27.675L206.575 18.275Z" fill="#323232"/>
<rect x="1" y="1" width="236" height="38" stroke="#AAAAAA" stroke-width="2"/>
</svg>
