<svg width="44" height="40" viewBox="0 0 44 40" fill="none" xmlns="http://www.w3.org/2000/svg">
<rect width="44" height="40" fill="#737373"/>
<path d="M14.558 27.196C11.814 27.196 9.784 25.264 9.784 21.876C9.784 18.516 11.87 16.514 14.6 16.514C16.056 16.514 17.036 17.158 17.666 17.802L16.784 18.852C16.266 18.334 15.636 17.928 14.656 17.928C12.724 17.928 11.464 19.412 11.464 21.82C11.464 24.27 12.598 25.768 14.726 25.768C15.356 25.768 15.986 25.586 16.336 25.264V22.856H14.306V21.512H17.82V25.978C17.134 26.678 15.958 27.196 14.558 27.196ZM25.0944 27.196C22.4344 27.196 20.6004 25.138 20.6004 21.806C20.6004 18.488 22.4344 16.514 25.0944 16.514C27.7404 16.514 29.5744 18.488 29.5744 21.806C29.5744 25.138 27.7404 27.196 25.0944 27.196ZM25.0944 25.768C26.8024 25.768 27.9084 24.214 27.9084 21.806C27.9084 19.398 26.8024 17.928 25.0944 17.928C23.3724 17.928 22.2804 19.398 22.2804 21.806C22.2804 24.214 23.3724 25.768 25.0944 25.768Z" fill="white"/>
</svg>
