<svg width="122" height="35" viewBox="0 0 122 35" fill="none" xmlns="http://www.w3.org/2000/svg">
<path d="M29.6902 15.796H32.8122V16.986H29.6902V15.796ZM32.0142 12.38H33.4842V21.732H32.0142V12.38ZM25.1962 23.72H33.8062V24.91H25.1962V23.72ZM25.1962 20.92H26.6522V24.378H25.1962V20.92ZM26.0082 14.004H27.1982V14.928C27.1982 17.294 25.8962 19.394 23.6142 20.206L22.8722 19.03C24.8602 18.344 26.0082 16.664 26.0082 14.928V14.004ZM26.3022 14.004H27.4782V14.928C27.4782 16.51 28.5702 18.106 30.4882 18.778L29.7602 19.926C27.5482 19.156 26.3022 17.14 26.3022 14.928V14.004ZM23.2922 13.332H30.1522V14.508H23.2922V13.332ZM41.9731 17.322H44.2131V18.526H41.9731V17.322ZM39.2011 15.768H40.3211V16.286C40.3211 18.876 39.3831 21.494 37.4371 22.642L36.5971 21.536C38.3611 20.5 39.2011 18.316 39.2011 16.286V15.768ZM39.4811 15.768H40.6011V16.286C40.6011 18.274 41.4551 20.304 43.2191 21.256L42.4071 22.348C40.4471 21.284 39.4811 18.82 39.4811 16.286V15.768ZM37.0031 14.634H42.7851V15.824H37.0031V14.634ZM39.2011 12.814H40.6011V15.572H39.2011V12.814ZM46.2711 12.366H47.6711V25.162H46.2711V12.366ZM43.6951 12.618H45.0671V24.532H43.6951V12.618ZM50.644 22.39H62.236V23.594H50.644V22.39ZM55.684 19.478H57.14V22.712H55.684V19.478ZM51.932 13.234H53.402V15.376H59.436V13.234H60.892V19.828H51.932V13.234ZM53.402 16.538V18.638H59.436V16.538H53.402ZM73.6089 12.366H75.0789V25.162H73.6089V12.366ZM69.8569 13.724H71.2989C71.2989 17.518 69.7869 20.738 65.3909 22.88L64.6209 21.704C68.3029 19.926 69.8569 17.392 69.8569 13.976V13.724ZM65.2509 13.724H70.5149V14.9H65.2509V13.724Z" fill="#737373"/>
<path d="M101.351 23.255L100.436 22.34L105.161 17.615L100.436 12.905L101.351 11.975L106.991 17.615L101.351 23.255Z" fill="#737373"/>
<rect x="0.5" y="0.5" width="121" height="34" rx="17" stroke="#AAAAAA"/>
</svg>
