<svg width="49" height="37" viewBox="0 0 49 37" fill="none" xmlns="http://www.w3.org/2000/svg">
<path d="M19.8725 24.182C17.1285 24.182 15.1125 22.25 15.1125 18.876C15.1125 15.516 17.1845 13.5 19.9145 13.5C21.3705 13.5 22.3505 14.144 22.9805 14.802L22.1125 15.838C21.5945 15.32 20.9645 14.914 19.9705 14.914C18.0525 14.914 16.7785 16.398 16.7785 18.82C16.7785 21.27 17.9125 22.768 20.0405 22.768C20.6705 22.768 21.3005 22.586 21.6645 22.264V19.842H19.6205V18.512H23.1345V22.978C22.4485 23.664 21.2865 24.182 19.8725 24.182ZM30.4089 24.182C27.7629 24.182 25.9289 22.124 25.9289 18.806C25.9289 15.488 27.7629 13.5 30.4089 13.5C33.0549 13.5 34.9029 15.488 34.9029 18.806C34.9029 22.124 33.0549 24.182 30.4089 24.182ZM30.4089 22.768C32.1169 22.768 33.2369 21.214 33.2369 18.806C33.2369 16.384 32.1169 14.914 30.4089 14.914C28.7009 14.914 27.5949 16.384 27.5949 18.806C27.5949 21.214 28.7009 22.768 30.4089 22.768Z" fill="#737373"/>
<rect x="1" y="1" width="47" height="35" stroke="#737373" stroke-width="2"/>
</svg>
