<svg width="137" height="51" viewBox="0 0 137 51" fill="none" xmlns="http://www.w3.org/2000/svg">
<rect y="4" width="134" height="42" rx="5" fill="#E3E3E3"/>
<path d="M41.402 19.982H42.928V21.13C42.928 23.706 41.808 25.974 39.344 26.828L38.35 25.358C40.52 24.63 41.402 22.894 41.402 21.13V19.982ZM41.78 19.982H43.292V21.312C43.292 22.866 44.16 24.378 46.19 25.008L45.224 26.45C42.886 25.666 41.78 23.65 41.78 21.312V19.982ZM46.904 19.282H48.766V26.94H46.904V19.282ZM48.248 22.278H50.488V23.818H48.248V22.278ZM44.538 27.234C47.226 27.234 48.92 28.172 48.92 29.74C48.92 31.322 47.226 32.246 44.538 32.246C41.836 32.246 40.142 31.322 40.142 29.74C40.142 28.172 41.836 27.234 44.538 27.234ZM44.538 28.676C42.886 28.676 41.99 29.026 41.99 29.74C41.99 30.468 42.886 30.804 44.538 30.804C46.19 30.804 47.072 30.468 47.072 29.74C47.072 29.026 46.19 28.676 44.538 28.676ZM57.5489 23.636H59.6909V25.148H57.5489V23.636ZM54.7769 20.402H56.2049V22.586C56.2049 25.526 55.3929 28.396 53.3209 29.67L52.2009 28.27C54.1049 27.094 54.7769 24.784 54.7769 22.586V20.402ZM55.1829 20.402H56.5829V22.502C56.5829 24.616 57.1289 26.772 58.8929 27.92L57.8849 29.376C55.8269 28.102 55.1829 25.302 55.1829 22.502V20.402ZM61.8049 19.282H63.5829V32.246H61.8049V19.282ZM59.1729 19.478H60.9089V31.658H59.1729V19.478ZM66.3318 29.236H78.0638V30.748H66.3318V29.236ZM71.2458 26.464H73.1078V29.6H71.2458V26.464ZM67.5638 20.108H69.4118V22.096H74.9418V20.108H76.7898V26.856H67.5638V20.108ZM69.4118 23.552V25.372H74.9418V23.552H69.4118ZM89.1287 19.282H91.0047V32.246H89.1287V19.282ZM85.3067 20.626H87.1547C87.1547 24.588 85.8107 27.836 81.2047 30.062L80.2387 28.578C83.9627 26.786 85.3067 24.434 85.3067 20.962V20.626ZM80.9247 20.626H86.1887V22.096H80.9247V20.626Z" fill="#737373"/>
</svg>
