<svg width="34" height="79" viewBox="0 0 34 79" fill="none" xmlns="http://www.w3.org/2000/svg">
<path d="M28.062 76.8358L28.0612 76.8347L1.66116 41.8173C1.66093 41.8171 1.66071 41.8168 1.66049 41.8165C1.42115 41.4978 1.25676 41.1611 1.15962 40.8021C1.05364 40.4105 0.998255 39.9792 1.00005 39.5038V39.5C1.00005 39.0221 1.05568 38.5882 1.16065 38.194C1.25555 37.8377 1.41888 37.5028 1.65923 37.1852L1.66115 37.1826L28.062 2.05996C28.6281 1.30685 29.2598 1 30.0046 1C30.7256 1 31.3908 1.3198 32.0255 2.16418C32.6699 3.02139 33 4.02301 33 5.21108C33 6.39916 32.6699 7.40078 32.0255 8.25798L8.99331 38.8991L8.54166 39.5L8.99331 40.1009L32.0255 70.742C32.6051 71.513 32.9217 72.4913 32.9217 73.7389C32.9217 74.9694 32.5881 75.9855 31.948 76.8348L31.9472 76.8358C31.3007 77.6959 30.6573 78 30.0046 78C29.352 78 28.7086 77.6959 28.062 76.8358Z" stroke="#737373" stroke-width="2"/>
</svg>
