<svg width="100" height="62" viewBox="0 0 100 62" fill="none" xmlns="http://www.w3.org/2000/svg">
<rect width="100" height="62" rx="5" fill="#737373"/>
<path d="M34.6546 24.042H36.4546V40.494H34.6546V24.042ZM32.1706 30.576H35.1406V32.106H32.1706V30.576ZM30.9466 24.366H32.7106V39.684H30.9466V24.366ZM23.1886 25.95H25.0786V35.454H23.1886V25.95ZM23.1886 34.716H24.2686C25.9246 34.716 27.7786 34.626 29.8846 34.212L30.0826 35.85C27.8866 36.264 25.9966 36.336 24.2686 36.336H23.1886V34.716ZM54.4482 26.85H57.8682V28.362H54.4482V26.85ZM54.4482 29.856H57.8682V31.386H54.4482V29.856ZM45.5022 25.212H54.1782V26.742H45.5022V25.212ZM45.2862 33.348L45.0882 31.782C47.7522 31.782 51.5322 31.746 54.5562 31.386L54.6642 32.772C51.5502 33.294 47.9142 33.348 45.2862 33.348ZM46.9962 26.454H48.8142V32.322H46.9962V26.454ZM50.8842 26.454H52.6842V32.322H50.8842V26.454ZM56.8062 24.042H58.6962V34.158H56.8062V24.042ZM53.2062 34.446C56.6622 34.446 58.7502 35.544 58.7502 37.47C58.7502 39.378 56.6622 40.476 53.2062 40.476C49.7502 40.476 47.6622 39.378 47.6622 37.47C47.6622 35.544 49.7502 34.446 53.2062 34.446ZM53.2062 35.904C50.8662 35.904 49.5342 36.444 49.5342 37.47C49.5342 38.478 50.8662 39.036 53.2062 39.036C55.5642 39.036 56.8782 38.478 56.8782 37.47C56.8782 36.444 55.5642 35.904 53.2062 35.904ZM71.4488 28.002H74.8688V29.55H71.4488V28.002ZM74.3648 24.042H76.2548V33.618H74.3648V24.042ZM65.4548 34.356H76.2548V40.296H65.4548V34.356ZM74.4008 35.85H67.3088V38.784H74.4008V35.85ZM66.6428 25.59H68.1728V26.796C68.1728 29.838 66.4988 32.52 63.5648 33.546L62.6108 32.052C65.1668 31.17 66.6428 29.01 66.6428 26.796V25.59ZM67.0208 25.59H68.5328V26.778C68.5328 28.812 69.9368 30.846 72.4028 31.71L71.4668 33.204C68.6228 32.214 67.0208 29.622 67.0208 26.778V25.59ZM63.1508 24.996H71.9708V26.508H63.1508V24.996Z" fill="white"/>
</svg>
