<svg width="85" height="35" viewBox="0 0 85 35" fill="none" xmlns="http://www.w3.org/2000/svg">
<path d="M23.4416 20.836H24.4496C26.7736 20.836 28.2856 20.78 30.0076 20.458L30.1616 21.648C28.3696 21.984 26.8296 22.054 24.4496 22.054H23.4416V20.836ZM23.4416 13.542H29.2516V14.732H24.9116V21.298H23.4416V13.542ZM31.9816 12.366H33.4516V25.19H31.9816V12.366ZM28.5516 16.902H32.5976V18.106H28.5516V16.902ZM36.7045 22.39H48.2965V23.594H36.7045V22.39ZM41.7445 19.478H43.2005V22.712H41.7445V19.478ZM37.9925 13.234H39.4625V15.376H45.4965V13.234H46.9525V19.828H37.9925V13.234ZM39.4625 16.538V18.638H45.4965V16.538H39.4625ZM59.6695 12.366H61.1395V25.162H59.6695V12.366ZM55.9175 13.724H57.3595C57.3595 17.518 55.8475 20.738 51.4515 22.88L50.6815 21.704C54.3635 19.926 55.9175 17.392 55.9175 13.976V13.724ZM51.3115 13.724H56.5755V14.9H51.3115V13.724Z" fill="#737373"/>
<rect x="0.5" y="0.5" width="84" height="34" rx="17" stroke="#AAAAAA"/>
</svg>
