<svg width="120" height="50" viewBox="0 0 120 50" fill="none" xmlns="http://www.w3.org/2000/svg">
<rect x="0.5" y="0.5" width="119" height="49" rx="4.5" fill="white" stroke="#E3E3E3"/>
<path d="M23.682 17.024H25.572V33.512H23.682V17.024ZM25.14 23.342H28.128V24.908H25.14V23.342ZM13.494 27.914H14.826C17.742 27.914 19.902 27.806 22.332 27.356L22.53 28.94C20.01 29.39 17.814 29.48 14.826 29.48H13.494V27.914ZM13.494 18.59H21.144V20.12H15.366V28.634H13.494V18.59ZM37.8026 17.384C41.4026 17.384 43.6706 18.572 43.6706 20.534C43.6706 22.514 41.4026 23.684 37.8026 23.684C34.2206 23.684 31.9526 22.514 31.9526 20.534C31.9526 18.572 34.2206 17.384 37.8026 17.384ZM37.8026 18.86C35.3546 18.86 33.8966 19.436 33.8966 20.534C33.8966 21.614 35.3546 22.208 37.8026 22.208C40.2506 22.208 41.7266 21.614 41.7266 20.534C41.7266 19.436 40.2506 18.86 37.8026 18.86ZM32.1506 27.788H43.4366V33.296H32.1506V27.788ZM41.6006 29.3H34.0046V31.784H41.6006V29.3ZM30.3686 24.89H45.2366V26.384H30.3686V24.89ZM53.6902 32V30.29H56.6062V21.074H54.2122V19.76C55.4722 19.544 56.3362 19.22 57.1102 18.752H58.6762V30.29H61.2682V32H53.6902ZM68.5558 32.252C65.9458 32.252 64.2718 29.93 64.2718 25.322C64.2718 20.75 65.9458 18.518 68.5558 18.518C71.1478 18.518 72.8398 20.75 72.8398 25.322C72.8398 29.93 71.1478 32.252 68.5558 32.252ZM68.5558 30.596C69.9058 30.596 70.8418 29.156 70.8418 25.322C70.8418 21.542 69.9058 20.138 68.5558 20.138C67.2058 20.138 66.2518 21.542 66.2518 25.322C66.2518 29.156 67.2058 30.596 68.5558 30.596ZM87.7054 17.042H89.5054V33.494H87.7054V17.042ZM85.2934 23.468H88.2634V24.998H85.2934V23.468ZM80.7574 19.112H82.5754C82.5754 23.522 81.1534 27.374 76.5094 30.038L75.4114 28.706C79.3714 26.438 80.7574 23.36 80.7574 19.49V19.112ZM76.1314 19.112H81.3514V20.642H76.1314V19.112ZM84.0514 17.474H85.8334V32.72H84.0514V17.474Z" fill="black"/>
<path d="M104 32L109 26.5L104 21" stroke="#737373" stroke-width="2" stroke-linecap="round"/>
</svg>
