<svg width="967" height="133" viewBox="0 0 967 133" fill="none" xmlns="http://www.w3.org/2000/svg">
<rect width="967" height="133" fill="#F6F6F6"/>
<path d="M40.82 44.76H48.78V46.46H40.82V44.76ZM43.36 48.92H45.42V53.48H43.36V48.92ZM47.96 44.76H50.02V45.8C50.02 47.04 50.02 48.86 49.56 51.2L47.52 50.98C47.96 48.64 47.96 47.02 47.96 45.8V44.76ZM52.18 43.38H54.3V57.1H52.18V43.38ZM53.4 49.16H56.72V50.9H53.4V49.16ZM42.46 59.6H54.88V61.3H42.46V59.6ZM42.46 55.86H44.56V60.12H42.46V55.86ZM39.92 54.4L39.72 52.72C42.94 52.72 47.38 52.66 51.06 52.14L51.2 53.64C47.42 54.32 43.1 54.4 39.92 54.4ZM71.4784 43.4H73.5784V54.26H71.4784V43.4ZM72.9584 47.9H76.1584V49.64H72.9584V47.9ZM61.8984 55.12H73.5784V61.44H61.8984V55.12ZM71.5384 56.76H63.9584V59.76H71.5384V56.76ZM60.0384 51.74H61.5184C64.9584 51.74 67.2584 51.66 69.9584 51.18L70.1384 52.86C67.3984 53.36 65.0384 53.46 61.5184 53.46H60.0384V51.74ZM59.9984 44.34H68.2784V49.6H62.0984V52.7H60.0384V48.02H66.2184V46.02H59.9984V44.34ZM83.8369 43.98C86.5969 43.98 88.6369 45.68 88.6369 48.1C88.6369 50.5 86.5969 52.2 83.8369 52.2C81.0969 52.2 79.0569 50.5 79.0569 48.1C79.0569 45.68 81.0969 43.98 83.8369 43.98ZM83.8369 45.7C82.2569 45.7 81.0769 46.64 81.0769 48.1C81.0769 49.56 82.2569 50.5 83.8369 50.5C85.4369 50.5 86.5969 49.56 86.5969 48.1C86.5969 46.64 85.4369 45.7 83.8369 45.7ZM91.6769 43.38H93.7769V52.64H91.6769V43.38ZM81.7969 53.48H93.7769V58.16H83.8769V60.68H81.8369V56.62H91.6969V55.12H81.7969V53.48ZM81.8369 59.78H94.3169V61.44H81.8369V59.78ZM103.608 57.76H120.168V59.48H103.608V57.76ZM110.788 53.3H112.868V58.54H110.788V53.3ZM104.968 45.02H118.688V46.72H104.968V45.02ZM105.028 52.34H118.648V54H105.028V52.34ZM107.648 46.4H109.748V52.58H107.648V46.4ZM113.928 46.4H116.008V52.58H113.928V46.4ZM135.166 43.38H137.266V54.38H135.166V43.38ZM136.686 48.08H139.846V49.82H136.686V48.08ZM125.606 55.32H137.266V61.44H125.606V55.32ZM135.206 56.98H127.666V59.76H135.206V56.98ZM123.026 45.18H133.786V46.86H123.026V45.18ZM128.406 47.6C131.026 47.6 132.826 48.92 132.826 50.88C132.826 52.86 131.026 54.14 128.406 54.14C125.766 54.14 123.966 52.86 123.966 50.88C123.966 48.92 125.766 47.6 128.406 47.6ZM128.406 49.18C126.966 49.18 125.986 49.82 125.986 50.88C125.986 51.94 126.966 52.58 128.406 52.58C129.846 52.58 130.826 51.94 130.826 50.88C130.826 49.82 129.846 49.18 128.406 49.18ZM127.366 43.24H129.446V46.06H127.366V43.24ZM150.817 60C151.077 54.64 152.017 51.2 154.877 47.24H147.957V45.28H157.417V46.68C153.977 51 153.437 54.26 153.177 60H150.817ZM165.423 43.98C168.183 43.98 170.223 45.68 170.223 48.1C170.223 50.5 168.183 52.2 165.423 52.2C162.683 52.2 160.643 50.5 160.643 48.1C160.643 45.68 162.683 43.98 165.423 43.98ZM165.423 45.7C163.843 45.7 162.663 46.64 162.663 48.1C162.663 49.56 163.843 50.5 165.423 50.5C167.023 50.5 168.183 49.56 168.183 48.1C168.183 46.64 167.023 45.7 165.423 45.7ZM173.263 43.38H175.363V52.64H173.263V43.38ZM163.383 53.48H175.363V58.16H165.463V60.68H163.423V56.62H173.283V55.12H163.383V53.48ZM163.423 59.78H175.903V61.44H163.423V59.78ZM198.133 43.36H200.233V61.68H198.133V43.36ZM190.493 44.72C193.233 44.72 195.213 47.22 195.213 51.16C195.213 55.1 193.233 57.62 190.493 57.62C187.773 57.62 185.793 55.1 185.793 51.16C185.793 47.22 187.773 44.72 190.493 44.72ZM190.493 46.62C188.893 46.62 187.793 48.32 187.793 51.16C187.793 54.02 188.893 55.74 190.493 55.74C192.093 55.74 193.193 54.02 193.193 51.16C193.193 48.32 192.093 46.62 190.493 46.62ZM218.132 43.38H220.132V61.66H218.132V43.38ZM215.372 50.64H218.672V52.34H215.372V50.64ZM214.012 43.74H215.972V60.76H214.012V43.74ZM205.392 45.5H207.492V56.06H205.392V45.5ZM205.392 55.24H206.592C208.432 55.24 210.492 55.14 212.832 54.68L213.052 56.5C210.612 56.96 208.512 57.04 206.592 57.04H205.392V55.24ZM230.383 44.76H238.343V46.46H230.383V44.76ZM232.923 48.92H234.983V53.48H232.923V48.92ZM237.523 44.76H239.582V45.8C239.582 47.04 239.582 48.86 239.122 51.2L237.083 50.98C237.523 48.64 237.523 47.02 237.523 45.8V44.76ZM241.743 43.38H243.863V57.1H241.743V43.38ZM242.963 49.16H246.283V50.9H242.963V49.16ZM232.023 59.6H244.443V61.3H232.023V59.6ZM232.023 55.86H234.123V60.12H232.023V55.86ZM229.483 54.4L229.283 52.72C232.503 52.72 236.943 52.66 240.623 52.14L240.763 53.64C236.983 54.32 232.663 54.4 229.483 54.4ZM261.041 43.4H263.141V54.26H261.041V43.4ZM262.521 47.9H265.721V49.64H262.521V47.9ZM251.461 55.12H263.141V61.44H251.461V55.12ZM261.101 56.76H253.521V59.76H261.101V56.76ZM249.601 51.74H251.081C254.521 51.74 256.821 51.66 259.521 51.18L259.701 52.86C256.961 53.36 254.601 53.46 251.081 53.46H249.601V51.74ZM249.561 44.34H257.841V49.6H251.661V52.7H249.601V48.02H255.781V46.02H249.561V44.34ZM278.699 46.5H282.499V48.18H278.699V46.5ZM278.699 49.84H282.499V51.54H278.699V49.84ZM268.759 44.68H278.399V46.38H268.759V44.68ZM268.519 53.72L268.299 51.98C271.259 51.98 275.459 51.94 278.819 51.54L278.939 53.08C275.479 53.66 271.439 53.72 268.519 53.72ZM270.419 46.06H272.439V52.58H270.419V46.06ZM274.739 46.06H276.739V52.58H274.739V46.06ZM281.319 43.38H283.419V54.62H281.319V43.38ZM277.319 54.94C281.159 54.94 283.479 56.16 283.479 58.3C283.479 60.42 281.159 61.64 277.319 61.64C273.479 61.64 271.159 60.42 271.159 58.3C271.159 56.16 273.479 54.94 277.319 54.94ZM277.319 56.56C274.719 56.56 273.239 57.16 273.239 58.3C273.239 59.42 274.719 60.04 277.319 60.04C279.939 60.04 281.399 59.42 281.399 58.3C281.399 57.16 279.939 56.56 277.319 56.56ZM295.918 43.66C300.018 43.66 302.438 44.78 302.438 46.82C302.438 48.84 300.018 49.96 295.918 49.96C291.818 49.96 289.418 48.84 289.418 46.82C289.418 44.78 291.818 43.66 295.918 43.66ZM295.918 45.22C293.098 45.22 291.578 45.78 291.578 46.82C291.578 47.86 293.098 48.4 295.918 48.4C298.758 48.4 300.258 47.86 300.258 46.82C300.258 45.78 298.758 45.22 295.918 45.22ZM287.658 51.02H304.178V52.68H287.658V51.02ZM289.618 54.02H302.118V58.38H291.718V60.34H289.638V56.9H300.058V55.58H289.618V54.02ZM289.638 59.88H302.638V61.5H289.638V59.88ZM324.728 43.38H326.828V53.7H324.728V43.38ZM326.268 47.42H329.408V49.14H326.268V47.42ZM315.148 54.62H326.828V61.44H315.148V54.62ZM324.788 56.28H317.208V59.76H324.788V56.28ZM313.368 44.28H315.468V51.66H313.368V44.28ZM313.368 50.78H314.848C317.408 50.78 320.128 50.6 323.068 50.02L323.308 51.72C320.288 52.34 317.508 52.52 314.848 52.52H313.368V50.78ZM344.947 43.38H347.047V61.66H344.947V43.38ZM339.587 45.32H341.647C341.647 50.74 339.487 55.34 333.207 58.4L332.107 56.72C337.367 54.18 339.587 50.56 339.587 45.68V45.32ZM333.007 45.32H340.527V47H333.007V45.32ZM356.005 44.88H357.725V47.88C357.725 52.3 355.745 56.36 352.465 57.96L351.205 56.22C354.125 54.9 356.005 51.38 356.005 47.88V44.88ZM356.405 44.88H358.105V47.88C358.105 51.24 359.965 54.6 362.845 55.88L361.605 57.56C358.385 56.04 356.405 52.14 356.405 47.88V44.88ZM364.305 43.36H366.405V61.68H364.305V43.36ZM379.544 46.44H384.424V48.14H379.544V46.44ZM379.544 50.36H384.484V52.06H379.544V50.36ZM371.544 44.92H380.024V53.64H371.544V44.92ZM377.964 46.58H373.604V51.98H377.964V46.58ZM383.804 43.4H385.904V56.72H383.804V43.4ZM374.004 59.6H386.324V61.3H374.004V59.6ZM374.004 55.5H376.104V60.44H374.004V55.5Z" fill="black"/>
<path d="M406.66 60.28C402.98 60.28 400.12 57.52 400.12 52.68C400.12 47.88 403.06 45.02 406.78 45.02C408.62 45.02 410.04 45.9 410.94 46.86L409.7 48.36C408.94 47.58 408.02 47.04 406.82 47.04C404.28 47.04 402.52 49.16 402.52 52.6C402.52 56.1 404.16 58.24 406.76 58.24C408.1 58.24 409.14 57.64 410 56.68L411.26 58.14C410.08 59.52 408.58 60.28 406.66 60.28ZM417.477 60.28C415.497 60.28 414.117 59.46 413.197 57.84L414.837 56.64C415.437 57.78 416.257 58.24 417.217 58.24C418.677 58.24 419.417 57.44 419.417 55.3V45.28H421.757V55.5C421.757 58.14 420.477 60.28 417.477 60.28ZM437.626 60.28C433.826 60.28 431.206 57.34 431.206 52.58C431.206 47.84 433.826 45.02 437.626 45.02C441.406 45.02 444.026 47.84 444.026 52.58C444.026 57.34 441.406 60.28 437.626 60.28ZM437.626 58.24C440.066 58.24 441.646 56.02 441.646 52.58C441.646 49.14 440.066 47.04 437.626 47.04C435.166 47.04 433.606 49.14 433.606 52.58C433.606 56.02 435.166 58.24 437.626 58.24ZM448.084 60V45.28H450.464L455.364 53.94L456.904 57.04H457.004C456.864 55.54 456.684 53.74 456.684 52.16V45.28H458.904V60H456.504L451.644 51.34L450.104 48.24H450.004C450.104 49.78 450.304 51.46 450.304 53.08V60H448.084ZM463.772 60V45.28H472.492V47.24H466.112V51.32H471.492V53.3H466.112V58.04H472.712V60H463.772ZM481.196 60V58.66C485.296 54.64 487.776 52.1 487.776 49.84C487.776 48.28 486.936 47.26 485.296 47.26C484.136 47.26 483.176 48 482.396 48.88L481.076 47.6C482.356 46.24 483.656 45.42 485.576 45.42C488.276 45.42 490.016 47.12 490.016 49.74C490.016 52.34 487.616 54.98 484.556 58.2C485.316 58.12 486.236 58.04 486.976 58.04H490.716V60H481.196ZM498.442 60.28C495.502 60.28 493.682 57.62 493.682 52.8C493.682 47.96 495.502 45.42 498.442 45.42C501.362 45.42 503.202 47.98 503.202 52.8C503.202 57.62 501.362 60.28 498.442 60.28ZM498.442 58.44C499.942 58.44 500.982 56.9 500.982 52.8C500.982 48.68 499.942 47.24 498.442 47.24C496.942 47.24 495.882 48.68 495.882 52.8C495.882 56.9 496.942 58.44 498.442 58.44ZM507.068 60V45.28H511.548C514.828 45.28 517.168 46.4 517.168 49.74C517.168 52.96 514.828 54.42 511.628 54.42H509.408V60H507.068ZM509.408 52.56H511.408C513.748 52.56 514.868 51.66 514.868 49.74C514.868 47.78 513.668 47.16 511.308 47.16H509.408V52.56Z" fill="#FF4A57"/>
<path d="M531.98 43.36H534.08V61.64H531.98V43.36ZM533.52 50.6H536.82V52.32H533.52V50.6ZM527.24 45.3H529.3C529.3 50.62 527.04 55.32 521.06 58.32L519.88 56.72C524.82 54.2 527.24 50.54 527.24 45.66V45.3ZM520.8 45.3H528.32V47H520.8V45.3ZM549.271 45.22H550.971V46.56C550.971 49.94 549.111 52.94 545.851 54.06L544.791 52.4C547.631 51.44 549.271 49.02 549.271 46.56V45.22ZM549.691 45.22H551.371V46.56C551.371 48.82 552.931 51.08 555.671 52.02L554.631 53.68C551.471 52.58 549.691 49.7 549.691 46.56V45.22ZM554.651 47.96H558.451V49.68H554.651V47.96ZM545.391 44.52H555.191V46.2H545.391V44.52ZM547.631 55.2H559.951V61.66H557.851V56.9H547.631V55.2ZM557.851 43.38H559.951V54.28H557.851V43.38ZM577.169 43.38H579.269V53.5H577.169V43.38ZM565.149 51.44H566.669C570.089 51.44 572.469 51.36 575.269 50.9L575.509 52.6C572.629 53.06 570.169 53.14 566.669 53.14H565.149V51.44ZM565.109 44.24H573.449V49.42H567.189V52.56H565.149V47.82H571.389V45.92H565.109V44.24ZM567.309 54.34H569.369V56.22H577.189V54.34H579.269V61.44H567.309V54.34ZM569.369 57.84V59.74H577.189V57.84H569.369ZM588.588 49.54H590.688V52.54H588.588V49.54ZM596.608 43.38H598.708V53.94H596.608V43.38ZM583.928 53.62L583.648 51.96C586.968 51.96 591.448 51.92 595.268 51.38L595.408 52.84C591.488 53.54 587.168 53.6 583.928 53.62ZM585.248 48.5H594.068V50.16H585.248V48.5ZM585.248 44.26H593.928V45.94H587.348V49.08H585.248V44.26ZM586.548 54.72H588.628V56.4H596.628V54.72H598.708V61.44H586.548V54.72ZM588.628 58V59.76H596.628V58H588.628ZM616.006 43.38H618.086V61.66H616.006V43.38ZM604.066 45.14H606.146V56.48H604.066V45.14ZM604.066 55.24H605.626C608.346 55.24 611.266 55.04 614.326 54.42L614.566 56.18C611.406 56.84 608.466 57.04 605.626 57.04H604.066V55.24ZM634.464 43.36H636.564V61.68H634.464V43.36ZM636.084 50.38H639.404V52.12H636.084V50.38ZM623.144 55.46H624.624C627.864 55.46 630.264 55.34 632.964 54.84L633.184 56.6C630.384 57.1 627.944 57.2 624.624 57.2H623.144V55.46ZM623.144 45.1H631.644V46.8H625.224V56.26H623.144V45.1ZM643.863 60.28C642.983 60.28 642.323 59.6 642.323 58.66C642.323 57.7 642.983 57.04 643.863 57.04C644.723 57.04 645.403 57.7 645.403 58.66C645.403 59.6 644.723 60.28 643.863 60.28Z" fill="black"/>
<rect x="731" y="36" width="100" height="62" rx="5" fill="#FF4A57"/>
<path d="M757.257 61.85H760.677V63.362H757.257V61.85ZM757.257 64.856H760.677V66.386H757.257V64.856ZM748.311 60.212H756.987V61.742H748.311V60.212ZM748.095 68.348L747.897 66.782C750.561 66.782 754.341 66.746 757.365 66.386L757.473 67.772C754.359 68.294 750.723 68.348 748.095 68.348ZM749.805 61.454H751.623V67.322H749.805V61.454ZM753.693 61.454H755.493V67.322H753.693V61.454ZM759.615 59.042H761.505V69.158H759.615V59.042ZM756.015 69.446C759.471 69.446 761.559 70.544 761.559 72.47C761.559 74.378 759.471 75.476 756.015 75.476C752.559 75.476 750.471 74.378 750.471 72.47C750.471 70.544 752.559 69.446 756.015 69.446ZM756.015 70.904C753.675 70.904 752.343 71.444 752.343 72.47C752.343 73.478 753.675 74.036 756.015 74.036C758.373 74.036 759.687 73.478 759.687 72.47C759.687 71.444 758.373 70.904 756.015 70.904ZM774.258 63.002H777.678V64.55H774.258V63.002ZM777.174 59.042H779.064V68.618H777.174V59.042ZM768.264 69.356H779.064V75.296H768.264V69.356ZM777.21 70.85H770.118V73.784H777.21V70.85ZM769.452 60.59H770.982V61.796C770.982 64.838 769.308 67.52 766.374 68.546L765.42 67.052C767.976 66.17 769.452 64.01 769.452 61.796V60.59ZM769.83 60.59H771.342V61.778C771.342 63.812 772.746 65.846 775.212 66.71L774.276 68.204C771.432 67.214 769.83 64.622 769.83 61.778V60.59ZM765.96 59.996H774.78V61.508H765.96V59.996ZM786.867 60.734H788.415V61.922C788.415 64.982 786.741 67.628 783.825 68.618L782.835 67.16C785.427 66.278 786.867 64.154 786.867 61.922V60.734ZM787.227 60.734H788.757V61.922C788.757 63.992 790.143 66.008 792.663 66.836L791.709 68.312C788.829 67.34 787.227 64.802 787.227 61.922V60.734ZM783.375 60.104H792.213V61.634H783.375V60.104ZM793.941 59.042H795.831V68.942H793.941V59.042ZM795.309 63.218H798.153V64.784H795.309V63.218ZM785.013 69.752H795.831V75.494H793.941V71.282H785.013V69.752ZM804.551 59.942H806.117V61.526C806.117 64.766 804.461 67.502 801.455 68.564L800.465 67.034C803.111 66.152 804.551 63.938 804.551 61.526V59.942ZM804.911 59.942H806.441V61.454C806.441 63.722 807.809 65.774 810.311 66.602L809.303 68.078C806.477 67.052 804.911 64.532 804.911 61.454V59.942ZM812.291 59.042H814.181V68.726H812.291V59.042ZM808.691 69.194C812.129 69.194 814.235 70.346 814.235 72.326C814.235 74.324 812.129 75.476 808.691 75.476C805.253 75.476 803.147 74.324 803.147 72.326C803.147 70.346 805.253 69.194 808.691 69.194ZM808.691 70.67C806.369 70.67 805.019 71.264 805.019 72.326C805.019 73.406 806.369 74 808.691 74C811.031 74 812.363 73.406 812.363 72.326C812.363 71.264 811.031 70.67 808.691 70.67ZM808.961 62.3H812.615V63.848H808.961V62.3Z" fill="white"/>
<rect x="836" y="36" width="100" height="62" rx="5" fill="#737373"/>
<path d="M870.655 59.042H872.455V75.494H870.655V59.042ZM868.171 65.576H871.141V67.106H868.171V65.576ZM866.947 59.366H868.711V74.684H866.947V59.366ZM859.189 60.95H861.079V70.454H859.189V60.95ZM859.189 69.716H860.269C861.925 69.716 863.779 69.626 865.885 69.212L866.083 70.85C863.887 71.264 861.997 71.336 860.269 71.336H859.189V69.716ZM890.448 61.85H893.868V63.362H890.448V61.85ZM890.448 64.856H893.868V66.386H890.448V64.856ZM881.502 60.212H890.178V61.742H881.502V60.212ZM881.286 68.348L881.088 66.782C883.752 66.782 887.532 66.746 890.556 66.386L890.664 67.772C887.55 68.294 883.914 68.348 881.286 68.348ZM882.996 61.454H884.814V67.322H882.996V61.454ZM886.884 61.454H888.684V67.322H886.884V61.454ZM892.806 59.042H894.696V69.158H892.806V59.042ZM889.206 69.446C892.662 69.446 894.75 70.544 894.75 72.47C894.75 74.378 892.662 75.476 889.206 75.476C885.75 75.476 883.662 74.378 883.662 72.47C883.662 70.544 885.75 69.446 889.206 69.446ZM889.206 70.904C886.866 70.904 885.534 71.444 885.534 72.47C885.534 73.478 886.866 74.036 889.206 74.036C891.564 74.036 892.878 73.478 892.878 72.47C892.878 71.444 891.564 70.904 889.206 70.904ZM907.449 63.002H910.869V64.55H907.449V63.002ZM910.365 59.042H912.255V68.618H910.365V59.042ZM901.455 69.356H912.255V75.296H901.455V69.356ZM910.401 70.85H903.309V73.784H910.401V70.85ZM902.643 60.59H904.173V61.796C904.173 64.838 902.499 67.52 899.565 68.546L898.611 67.052C901.167 66.17 902.643 64.01 902.643 61.796V60.59ZM903.021 60.59H904.533V61.778C904.533 63.812 905.937 65.846 908.403 66.71L907.467 68.204C904.623 67.214 903.021 64.622 903.021 61.778V60.59ZM899.151 59.996H907.971V61.508H899.151V59.996Z" fill="white"/>
</svg>
