<svg width="91" height="37" viewBox="0 0 91 37" fill="none" xmlns="http://www.w3.org/2000/svg">
<rect x="0.5" y="0.5" width="90" height="36" rx="18" fill="white" stroke="#737373"/>
<path d="M24.1078 14.55H26.7678V15.726H24.1078V14.55ZM24.1078 16.888H26.7678V18.078H24.1078V16.888ZM17.1498 13.276H23.8978V14.466H17.1498V13.276ZM16.9818 19.604L16.8278 18.386C18.8998 18.386 21.8398 18.358 24.1918 18.078L24.2758 19.156C21.8538 19.562 19.0258 19.604 16.9818 19.604ZM18.3118 14.242H19.7258V18.806H18.3118V14.242ZM21.3358 14.242H22.7358V18.806H21.3358V14.242ZM25.9418 12.366H27.4118V20.234H25.9418V12.366ZM23.1418 20.458C25.8298 20.458 27.4538 21.312 27.4538 22.81C27.4538 24.294 25.8298 25.148 23.1418 25.148C20.4538 25.148 18.8298 24.294 18.8298 22.81C18.8298 21.312 20.4538 20.458 23.1418 20.458ZM23.1418 21.592C21.3218 21.592 20.2858 22.012 20.2858 22.81C20.2858 23.594 21.3218 24.028 23.1418 24.028C24.9758 24.028 25.9978 23.594 25.9978 22.81C25.9978 22.012 24.9758 21.592 23.1418 21.592ZM39.1347 12.352H40.6047V25.148H39.1347V12.352ZM40.2127 17.42H42.5227V18.624H40.2127V17.42ZM35.8167 13.71H37.2587C37.2587 17.434 35.6767 20.724 31.4907 22.824L30.6647 21.704C34.1227 19.94 35.8167 17.378 35.8167 13.962V13.71ZM31.3087 13.71H36.5727V14.9H31.3087V13.71ZM53.7282 12.786H55.0162V13.444C55.0162 15.894 52.7622 17.798 49.8082 18.274L49.2342 17.084C51.8242 16.72 53.7282 15.124 53.7282 13.444V12.786ZM53.9942 12.786H55.2682V13.444C55.2682 15.096 57.1862 16.72 59.7762 17.084L59.2022 18.274C56.2482 17.798 53.9942 15.88 53.9942 13.444V12.786ZM53.7282 20.374H55.1842V25.162H53.7282V20.374ZM48.7162 19.45H60.2802V20.654H48.7162V19.45ZM69.4691 15.586H72.1431V16.79H69.4691V15.586ZM71.7231 12.366H73.1931V19.982H71.7231V12.366ZM68.9231 20.318C71.5971 20.318 73.2351 21.228 73.2351 22.74C73.2351 24.28 71.5971 25.162 68.9231 25.162C66.2491 25.162 64.6111 24.28 64.6111 22.74C64.6111 21.228 66.2491 20.318 68.9231 20.318ZM68.9231 21.452C67.1171 21.452 66.0671 21.9 66.0671 22.74C66.0671 23.58 67.1171 24.028 68.9231 24.028C70.7431 24.028 71.7791 23.58 71.7791 22.74C71.7791 21.9 70.7431 21.452 68.9231 21.452ZM65.7171 13.654H66.9071V14.592C66.9071 16.986 65.6051 19.1 63.3371 19.912L62.5811 18.75C64.5831 18.05 65.7171 16.342 65.7171 14.592V13.654ZM66.0111 13.654H67.1871V14.578C67.1871 16.174 68.2791 17.756 70.1971 18.414L69.4691 19.576C67.2571 18.806 66.0111 16.79 66.0111 14.578V13.654ZM63.0011 13.234H69.8611V14.41H63.0011V13.234Z" fill="#737373"/>
</svg>
