<svg width="91" height="37" viewBox="0 0 91 37" fill="none" xmlns="http://www.w3.org/2000/svg">
<rect width="91" height="37" rx="18.5" fill="#737373"/>
<path d="M24.1078 14.55H26.7678V15.726H24.1078V14.55ZM24.1078 16.888H26.7678V18.078H24.1078V16.888ZM17.1498 13.276H23.8978V14.466H17.1498V13.276ZM16.9818 19.604L16.8278 18.386C18.8998 18.386 21.8398 18.358 24.1918 18.078L24.2758 19.156C21.8538 19.562 19.0258 19.604 16.9818 19.604ZM18.3118 14.242H19.7258V18.806H18.3118V14.242ZM21.3358 14.242H22.7358V18.806H21.3358V14.242ZM25.9418 12.366H27.4118V20.234H25.9418V12.366ZM23.1418 20.458C25.8298 20.458 27.4538 21.312 27.4538 22.81C27.4538 24.294 25.8298 25.148 23.1418 25.148C20.4538 25.148 18.8298 24.294 18.8298 22.81C18.8298 21.312 20.4538 20.458 23.1418 20.458ZM23.1418 21.592C21.3218 21.592 20.2858 22.012 20.2858 22.81C20.2858 23.594 21.3218 24.028 23.1418 24.028C24.9758 24.028 25.9978 23.594 25.9978 22.81C25.9978 22.012 24.9758 21.592 23.1418 21.592ZM39.1347 12.352H40.6047V25.148H39.1347V12.352ZM40.2127 17.42H42.5227V18.624H40.2127V17.42ZM35.8167 13.71H37.2587C37.2587 17.434 35.6767 20.724 31.4907 22.824L30.6647 21.704C34.1227 19.94 35.8167 17.378 35.8167 13.962V13.71ZM31.3087 13.71H36.5727V14.9H31.3087V13.71ZM51.7262 13.024H52.9302V14.27C52.9302 16.706 51.6702 18.778 49.3742 19.59L48.6322 18.414C50.6482 17.728 51.7262 16.076 51.7262 14.27V13.024ZM52.0202 13.024H53.1962V14.396C53.1962 16.034 54.2882 17.588 56.2062 18.218L55.4782 19.38C53.2662 18.61 52.0202 16.65 52.0202 14.396V13.024ZM57.2282 12.366H58.6982V20.108H57.2282V12.366ZM58.2922 15.628H60.5042V16.846H58.2922V15.628ZM50.2842 20.696H58.6982V25.162H57.2282V21.886H50.2842V20.696ZM72.1011 12.366H73.5011V25.162H72.1011V12.366ZM67.6351 16.86H69.9451V18.064H67.6351V16.86ZM69.5251 12.618H70.8971V24.532H69.5251V12.618ZM65.0451 14.396H66.1651V15.88C66.1651 18.708 65.2131 21.452 63.2671 22.684L62.3851 21.592C64.2051 20.472 65.0451 18.162 65.0451 15.88V14.396ZM65.3671 14.396H66.4731V15.88C66.4731 18.064 67.2851 20.248 69.0771 21.298L68.2091 22.376C66.2631 21.214 65.3671 18.624 65.3671 15.88V14.396ZM62.7911 13.766H68.5731V14.956H62.7911V13.766Z" fill="white"/>
</svg>
