<svg width="99" height="37" viewBox="0 0 99 37" fill="none" xmlns="http://www.w3.org/2000/svg">
<rect x="0.5" y="0.5" width="98" height="36" rx="18" fill="white" stroke="#FF4A57"/>
<path d="M26.5539 14.13H30.4039V15.32H26.5539V14.13ZM26.5539 17.028H30.4039V18.218H26.5539V17.028ZM24.3139 13.094C26.2039 13.094 27.6459 14.382 27.6459 16.174C27.6459 17.966 26.2039 19.254 24.3139 19.254C22.4099 19.254 20.9819 17.966 20.9819 16.174C20.9819 14.382 22.4099 13.094 24.3139 13.094ZM24.3139 14.34C23.2079 14.34 22.3819 15.054 22.3819 16.174C22.3819 17.28 23.2079 18.008 24.3139 18.008C25.4199 18.008 26.2459 17.28 26.2459 16.174C26.2459 15.054 25.4199 14.34 24.3139 14.34ZM29.9419 12.366H31.4119V19.898H29.9419V12.366ZM27.1419 20.192C29.8019 20.192 31.4539 21.102 31.4539 22.67C31.4539 24.238 29.8019 25.148 27.1419 25.148C24.4819 25.148 22.8299 24.238 22.8299 22.67C22.8299 21.102 24.4819 20.192 27.1419 20.192ZM27.1419 21.326C25.3219 21.326 24.2719 21.802 24.2719 22.67C24.2719 23.524 25.3219 24 27.1419 24C28.9619 24 30.0119 23.524 30.0119 22.67C30.0119 21.802 28.9619 21.326 27.1419 21.326ZM37.8428 19.968H39.3128V22.04H37.8428V19.968ZM43.2188 12.366H44.6888V25.162H43.2188V12.366ZM44.1988 17.7H46.5088V18.918H44.1988V17.7ZM34.7348 22.866L34.5388 21.662C36.7928 21.662 39.8868 21.648 42.5048 21.27L42.6168 22.348C39.8868 22.852 36.9328 22.866 34.7348 22.866ZM34.7628 13.85H42.3648V15.012H34.7628V13.85ZM38.5708 15.656C40.3768 15.656 41.6368 16.608 41.6368 18.036C41.6368 19.478 40.3768 20.416 38.5708 20.416C36.7648 20.416 35.5188 19.478 35.5188 18.036C35.5188 16.608 36.7648 15.656 38.5708 15.656ZM38.5708 16.776C37.5628 16.776 36.9048 17.266 36.9048 18.036C36.9048 18.82 37.5628 19.296 38.5708 19.296C39.5788 19.296 40.2508 18.82 40.2508 18.036C40.2508 17.266 39.5788 16.776 38.5708 16.776ZM37.8428 12.408H39.3128V14.676H37.8428V12.408ZM60.0103 14.55H62.6703V15.726H60.0103V14.55ZM60.0103 16.888H62.6703V18.078H60.0103V16.888ZM53.0523 13.276H59.8003V14.466H53.0523V13.276ZM52.8843 19.604L52.7303 18.386C54.8023 18.386 57.7423 18.358 60.0943 18.078L60.1783 19.156C57.7563 19.562 54.9283 19.604 52.8843 19.604ZM54.2143 14.242H55.6283V18.806H54.2143V14.242ZM57.2383 14.242H58.6383V18.806H57.2383V14.242ZM61.8443 12.366H63.3143V20.234H61.8443V12.366ZM59.0443 20.458C61.7323 20.458 63.3563 21.312 63.3563 22.81C63.3563 24.294 61.7323 25.148 59.0443 25.148C56.3563 25.148 54.7323 24.294 54.7323 22.81C54.7323 21.312 56.3563 20.458 59.0443 20.458ZM59.0443 21.592C57.2243 21.592 56.1883 22.012 56.1883 22.81C56.1883 23.594 57.2243 24.028 59.0443 24.028C60.8783 24.028 61.9003 23.594 61.9003 22.81C61.9003 22.012 60.8783 21.592 59.0443 21.592ZM75.0372 12.352H76.5072V25.148H75.0372V12.352ZM76.1152 17.42H78.4252V18.624H76.1152V17.42ZM71.7192 13.71H73.1612C73.1612 17.434 71.5792 20.724 67.3932 22.824L66.5672 21.704C70.0252 19.94 71.7192 17.378 71.7192 13.962V13.71ZM67.2112 13.71H72.4752V14.9H67.2112V13.71Z" fill="#FF4A57"/>
</svg>
