<svg width="143" height="32" viewBox="0 0 143 32" fill="none" xmlns="http://www.w3.org/2000/svg">
<rect x="0.5" y="0.5" width="142" height="31" fill="white"/>
<path d="M12.624 11.848H13.696V14.2C13.696 17.256 11.856 20.328 9.552 21.464L8.784 20.408C10.88 19.416 12.624 16.696 12.624 14.2V11.848ZM12.88 11.848H13.952V14.2C13.952 16.648 15.696 19.144 17.824 20.056L17.072 21.112C14.736 20.024 12.88 17.208 12.88 14.2V11.848ZM9.264 11.256H17.344V12.376H9.264V11.256ZM19.296 9.784H20.624V24.248H19.296V9.784ZM31.0948 11.912H35.5108V13H31.0948V11.912ZM31.0948 15.144H35.5108V16.248H31.0948V15.144ZM26.7588 19.112H36.4068V24.248H35.0788V20.184H26.7588V19.112ZM35.0788 9.784H36.4068V18.312H35.0788V9.784ZM28.4548 10.584C30.5828 10.584 32.1828 12.024 32.1828 14.072C32.1828 16.12 30.5828 17.544 28.4548 17.544C26.3108 17.544 24.7268 16.12 24.7268 14.072C24.7268 12.024 26.3108 10.584 28.4548 10.584ZM28.4548 11.72C27.0468 11.72 26.0068 12.696 26.0068 14.072C26.0068 15.448 27.0468 16.408 28.4548 16.408C29.8628 16.408 30.9188 15.448 30.9188 14.072C30.9188 12.696 29.8628 11.72 28.4548 11.72ZM52.2236 13.192H55.8716V14.296H52.2236V13.192ZM48.4316 10.664H49.5036V12.44C49.5036 15.24 47.9356 17.576 45.5196 18.552L44.8316 17.496C46.9756 16.696 48.4316 14.648 48.4316 12.44V10.664ZM48.6876 10.664H49.7596V12.488C49.7596 14.504 51.1676 16.408 53.2636 17.176L52.5436 18.2C50.2396 17.304 48.6876 15.064 48.6876 12.488V10.664ZM55.3756 9.8H56.7036V20.616H55.3756V9.8ZM47.4076 22.84H57.0556V23.928H47.4076V22.84ZM47.4076 19.416H48.7356V23.352H47.4076V19.416ZM61.1424 16.696H62.0704C64.3424 16.696 65.6864 16.648 67.3024 16.328L67.4304 17.416C65.7664 17.736 64.3904 17.8 62.0704 17.8H61.1424V16.696ZM61.1424 10.84H66.7424V11.928H62.4224V17.288H61.1424V10.84ZM62.0224 13.72H66.5664V14.76H62.0224V13.72ZM71.4464 9.784H72.7104V18.552H71.4464V9.784ZM69.1104 13.56H71.8464V14.648H69.1104V13.56ZM68.2624 10.056H69.5104V18.472H68.2624V10.056ZM63.0144 19.32H72.7104V24.248H71.3984V20.408H63.0144V19.32Z" fill="#AAAAAA"/>
<path d="M134 13.9045L129 19L124 13.9045L124.888 13L129 17.1911L133.113 13L134 13.9045Z" fill="#AAAAAA"/>
<rect x="0.5" y="0.5" width="142" height="31" stroke="#AAAAAA"/>
</svg>
