<svg width="34" height="79" viewBox="0 0 34 79" fill="none" xmlns="http://www.w3.org/2000/svg">
<path d="M5.93796 2.16418L5.93882 2.16532L32.3388 37.1827C32.3391 37.1829 32.3393 37.1832 32.3395 37.1835C32.5788 37.5022 32.7432 37.8389 32.8404 38.1979C32.9464 38.5895 33.0017 39.0208 33 39.4962V39.5C33 39.9779 32.9443 40.4118 32.8393 40.806C32.7445 41.1623 32.5811 41.4972 32.3408 41.8148L32.3388 41.8174L5.93796 76.94C5.37187 77.6931 4.74016 78 3.99539 78C3.27435 78 2.60917 77.6802 1.97447 76.8358C1.33013 75.9786 1 74.977 1 73.7889C1 72.6008 1.33013 71.5992 1.97447 70.742L25.0067 40.1009L25.4583 39.5L25.0067 38.8991L1.97447 8.25798C1.39492 7.48697 1.07834 6.50867 1.07834 5.26112C1.07834 4.03064 1.41194 3.0145 2.05204 2.16521L2.05281 2.16418C2.69933 1.30408 3.34273 1 3.99539 1C4.64804 1 5.29144 1.30408 5.93796 2.16418Z" stroke="#737373" stroke-width="2"/>
</svg>
