<svg width="27" height="27" viewBox="0 0 27 27" fill="none" xmlns="http://www.w3.org/2000/svg">
<path fill-rule="evenodd" clip-rule="evenodd" d="M3.01742 11.2578C3.01742 16.3652 7.1718 20.5157 12.3091 20.5157C17.4465 20.5157 21.6008 16.3652 21.6008 11.2578C21.6008 6.15054 17.4465 2 12.3091 2C7.1718 2 3.01742 6.15054 3.01742 11.2578ZM1.01742 11.2578C1.01742 17.4754 6.07289 22.5157 12.3091 22.5157C15.0475 22.5157 17.5581 21.5439 19.5131 19.9273L24.2929 24.7071C24.6834 25.0976 25.3166 25.0976 25.7071 24.7071C26.0976 24.3166 26.0976 23.6834 25.7071 23.2929L20.9361 18.5219C22.5986 16.5613 23.6008 14.0262 23.6008 11.2578C23.6008 5.04031 18.5454 0 12.3091 0C6.07289 0 1.01742 5.04031 1.01742 11.2578Z" fill="#737373"/>
</svg>
