<svg width="100" height="32" viewBox="0 0 100 32" fill="none" xmlns="http://www.w3.org/2000/svg">
<rect width="100" height="32" fill="#FB4357"/>
<path d="M22.8862 16.344H34.4502V17.548H22.8862V16.344ZM24.3142 14.104H33.1202V15.28H24.3142V14.104ZM24.3142 10.8H33.0362V11.99H25.7702V14.678H24.3142V10.8ZM28.6402 18.5C31.3842 18.5 33.0502 19.34 33.0502 20.824C33.0502 22.308 31.3842 23.148 28.6402 23.148C25.8962 23.148 24.2302 22.308 24.2302 20.824C24.2302 19.34 25.8962 18.5 28.6402 18.5ZM28.6402 19.62C26.7642 19.62 25.7142 20.04 25.7142 20.824C25.7142 21.608 26.7642 22.014 28.6402 22.014C30.5162 22.014 31.5662 21.608 31.5662 20.824C31.5662 20.04 30.5162 19.62 28.6402 19.62ZM36.7511 17.324H48.3431V18.5H36.7511V17.324ZM38.2071 10.66H46.8871V13.922H39.6771V15.49H38.2211V12.858H45.4451V11.78H38.2071V10.66ZM38.2211 15.042H47.1531V16.176H38.2211V15.042ZM41.8191 15.602H43.2751V17.94H41.8191V15.602ZM38.0391 19.368H46.9711V23.078H45.5011V20.544H38.0391V19.368ZM59.1 10.366H60.556V23.162H59.1V10.366ZM60.22 15.504H62.544V16.722H60.22V15.504ZM50.574 12.34H58.078V13.516H50.574V12.34ZM54.368 14.44C56.188 14.44 57.532 15.672 57.532 17.422C57.532 19.186 56.188 20.418 54.368 20.418C52.534 20.418 51.19 19.186 51.19 17.422C51.19 15.672 52.534 14.44 54.368 14.44ZM54.368 15.644C53.332 15.644 52.59 16.344 52.59 17.422C52.59 18.5 53.332 19.214 54.368 19.214C55.39 19.214 56.132 18.5 56.132 17.422C56.132 16.344 55.39 15.644 54.368 15.644ZM53.612 10.548H55.082V12.83H53.612V10.548ZM73.6089 10.366H75.0789V23.162H73.6089V10.366ZM69.8569 11.724H71.2989C71.2989 15.518 69.7869 18.738 65.3909 20.88L64.6209 19.704C68.3029 17.926 69.8569 15.392 69.8569 11.976V11.724ZM65.2509 11.724H70.5149V12.9H65.2509V11.724Z" fill="white"/>
</svg>
