<svg width="14" height="14" viewBox="0 0 14 14" fill="none" xmlns="http://www.w3.org/2000/svg">
<path d="M7 0C5.61553 0 4.26216 0.410543 3.11101 1.17971C1.95987 1.94888 1.06266 3.04213 0.532846 4.32122C0.00303299 5.6003 -0.13559 7.00776 0.134506 8.36563C0.404603 9.7235 1.07129 10.9708 2.05026 11.9497C3.02922 12.9287 4.2765 13.5954 5.63437 13.8655C6.99224 14.1356 8.3997 13.997 9.67879 13.4672C10.9579 12.9373 12.0511 12.0401 12.8203 10.889C13.5895 9.73785 14 8.38447 14 7C13.998 5.14409 13.2599 3.36475 11.9476 2.05242C10.6353 0.740087 8.85592 0.00195988 7 0ZM7 12.9231C5.82853 12.9231 4.68336 12.5757 3.70932 11.9249C2.73527 11.274 1.9761 10.349 1.52779 9.26666C1.07949 8.18436 0.962193 6.99343 1.19074 5.84446C1.41928 4.6955 1.9834 3.64011 2.81175 2.81175C3.64011 1.98339 4.6955 1.41928 5.84447 1.19073C6.99343 0.96219 8.18436 1.07949 9.26667 1.52779C10.349 1.97609 11.274 2.73527 11.9249 3.70931C12.5757 4.68336 12.9231 5.82853 12.9231 7C12.9213 8.57035 12.2967 10.0759 11.1863 11.1863C10.0759 12.2967 8.57035 12.9213 7 12.9231ZM11.3077 7C11.3077 7.85198 11.0551 8.68483 10.5817 9.39322C10.1084 10.1016 9.43561 10.6537 8.64848 10.9798C7.86136 11.3058 6.99522 11.3911 6.15961 11.2249C5.324 11.0587 4.55645 10.6484 3.954 10.046C3.35156 9.44356 2.94129 8.676 2.77508 7.84039C2.60887 7.00478 2.69418 6.13864 3.02021 5.35152C3.34625 4.56439 3.89838 3.89162 4.60678 3.41828C5.31517 2.94495 6.14802 2.69231 7 2.69231C8.14209 2.69355 9.23704 3.1478 10.0446 3.95538C10.8522 4.76296 11.3064 5.85791 11.3077 7Z" fill="#0094FF"/>
</svg>
