<svg width="134" height="50" viewBox="0 0 134 50" fill="none" xmlns="http://www.w3.org/2000/svg">
<rect y="8" width="134" height="42" rx="5" fill="#ED3124"/>
<path d="M43.712 26.138H45.868V27.636H43.712V26.138ZM43.712 30.142H45.868V31.654H43.712V30.142ZM47.926 23.282H49.704V36.246H47.926V23.282ZM45.336 23.478H47.072V35.658H45.336V23.478ZM41.472 24.192C43.194 24.192 44.3 25.97 44.3 28.896C44.3 31.836 43.194 33.614 41.472 33.614C39.764 33.614 38.672 31.836 38.672 28.896C38.672 25.97 39.764 24.192 41.472 24.192ZM41.472 25.942C40.758 25.942 40.338 26.922 40.338 28.896C40.338 30.884 40.758 31.85 41.472 31.85C42.2 31.85 42.62 30.884 42.62 28.896C42.62 26.922 42.2 25.942 41.472 25.942ZM61.8049 23.282H63.5829V36.246H61.8049V23.282ZM60.2509 28.224H62.3929V29.722H60.2509V28.224ZM58.9629 23.478H60.7129V35.658H58.9629V23.478ZM52.8029 24.612H57.9269V33.012H52.8029V24.612ZM56.1909 26.068H54.5389V31.556H56.1909V26.068ZM74.6338 23.282H76.4818V36.246H74.6338V23.282ZM76.0618 28.336H78.3578V29.89H76.0618V28.336ZM66.2618 25.2H73.8078V26.684H66.2618V25.2ZM70.0558 27.412C71.9458 27.412 73.3458 28.7 73.3458 30.506C73.3458 32.312 71.9458 33.6 70.0558 33.6C68.1658 33.6 66.7658 32.312 66.7658 30.506C66.7658 28.7 68.1658 27.412 70.0558 27.412ZM70.0558 28.924C69.1738 28.924 68.5438 29.512 68.5438 30.506C68.5438 31.5 69.1738 32.088 70.0558 32.088C70.9378 32.088 71.5678 31.5 71.5678 30.506C71.5678 29.512 70.9378 28.924 70.0558 28.924ZM69.1178 23.492H70.9798V25.76H69.1178V23.492ZM89.1287 23.282H91.0047V36.246H89.1287V23.282ZM85.3067 24.626H87.1547C87.1547 28.588 85.8107 31.836 81.2047 34.062L80.2387 32.578C83.9627 30.786 85.3067 28.434 85.3067 24.962V24.626ZM80.9247 24.626H86.1887V26.096H80.9247V24.626Z" fill="white"/>
</svg>
