<svg width="143" height="32" viewBox="0 0 143 32" fill="none" xmlns="http://www.w3.org/2000/svg">
<rect x="0.5" y="0.5" width="142" height="31" fill="white"/>
<path d="M15.376 11.864H19.792V12.952H15.376V11.864ZM15.376 15.192H19.792V16.296H15.376V15.192ZM12.736 10.632C14.864 10.632 16.464 12.072 16.464 14.072C16.464 16.088 14.864 17.512 12.736 17.512C10.592 17.512 9.008 16.088 9.008 14.072C9.008 12.072 10.592 10.632 12.736 10.632ZM12.736 11.768C11.328 11.768 10.288 12.712 10.288 14.072C10.288 15.432 11.328 16.376 12.736 16.376C14.144 16.376 15.2 15.432 15.2 14.072C15.2 12.712 14.144 11.768 12.736 11.768ZM19.36 9.784H20.688V18.344H19.36V9.784ZM15.936 18.68C18.912 18.68 20.752 19.704 20.752 21.448C20.752 23.208 18.912 24.216 15.936 24.216C12.944 24.216 11.104 23.208 11.104 21.448C11.104 19.704 12.944 18.68 15.936 18.68ZM15.936 19.736C13.744 19.736 12.416 20.376 12.416 21.448C12.416 22.536 13.744 23.176 15.936 23.176C18.112 23.176 19.44 22.536 19.44 21.448C19.44 20.376 18.112 19.736 15.936 19.736ZM28.2628 18.408H29.5908V20.76H28.2628V18.408ZM34.3428 9.784H35.6708V24.248H34.3428V9.784ZM35.2388 15.928H37.9108V17.048H35.2388V15.928ZM24.5348 21.496L24.3428 20.392C26.9348 20.392 30.4708 20.36 33.4628 19.928L33.5748 20.92C30.4548 21.48 27.0628 21.496 24.5348 21.496ZM24.5828 11.528H33.2388V12.6H24.5828V11.528ZM28.9188 13.448C30.9348 13.448 32.3268 14.504 32.3268 16.12C32.3268 17.752 30.9348 18.792 28.9188 18.792C26.9028 18.792 25.5268 17.752 25.5268 16.12C25.5268 14.504 26.9028 13.448 28.9188 13.448ZM28.9188 14.472C27.6228 14.472 26.7748 15.128 26.7748 16.12C26.7748 17.112 27.6228 17.768 28.9188 17.768C30.2148 17.768 31.0788 17.112 31.0788 16.12C31.0788 15.128 30.2148 14.472 28.9188 14.472ZM28.2628 9.8H29.5908V12.248H28.2628V9.8ZM41.0055 10.904H47.4055V11.992H41.0055V10.904ZM43.1815 14.136H44.4935V17.752H43.1815V14.136ZM46.8775 10.904H48.1895V11.672C48.1895 12.616 48.1895 14.056 47.8055 15.96L46.5095 15.816C46.8775 13.912 46.8775 12.6 46.8775 11.672V10.904ZM50.1575 9.784H51.4855V20.68H50.1575V9.784ZM50.8775 14.488H53.5495V15.592H50.8775V14.488ZM42.3495 22.84H51.9495V23.928H42.3495V22.84ZM42.3495 19.672H43.6615V23.176H42.3495V19.672ZM40.2695 18.376L40.1255 17.288C42.7015 17.288 46.2535 17.224 49.1815 16.824L49.2775 17.784C46.2695 18.312 42.8135 18.376 40.2695 18.376ZM67.9424 13.192H71.5904V14.296H67.9424V13.192ZM64.1504 10.664H65.2224V12.44C65.2224 15.24 63.6544 17.576 61.2384 18.552L60.5504 17.496C62.6944 16.696 64.1504 14.648 64.1504 12.44V10.664ZM64.4064 10.664H65.4784V12.488C65.4784 14.504 66.8864 16.408 68.9824 17.176L68.2624 18.2C65.9584 17.304 64.4064 15.064 64.4064 12.488V10.664ZM71.0944 9.8H72.4224V20.616H71.0944V9.8ZM63.1264 22.84H72.7744V23.928H63.1264V22.84ZM63.1264 19.416H64.4544V23.352H63.1264V19.416ZM76.8611 16.696H77.7891C80.0611 16.696 81.4051 16.648 83.0211 16.328L83.1491 17.416C81.4851 17.736 80.1091 17.8 77.7891 17.8H76.8611V16.696ZM76.8611 10.84H82.4611V11.928H78.1411V17.288H76.8611V10.84ZM77.7411 13.72H82.2851V14.76H77.7411V13.72ZM87.1651 9.784H88.4291V18.552H87.1651V9.784ZM84.8291 13.56H87.5651V14.648H84.8291V13.56ZM83.9811 10.056H85.2291V18.472H83.9811V10.056ZM78.7331 19.32H88.4291V24.248H87.1171V20.408H78.7331V19.32Z" fill="#AAAAAA"/>
<path d="M134 13.9045L129 19L124 13.9045L124.888 13L129 17.1911L133.113 13L134 13.9045Z" fill="#AAAAAA"/>
<rect x="0.5" y="0.5" width="142" height="31" stroke="#AAAAAA"/>
</svg>
