<svg width="63" height="63" viewBox="0 0 63 63" fill="none" xmlns="http://www.w3.org/2000/svg">
<g filter="url(#filter0_d_38_947)">
<rect x="5" y="1" width="53" height="53" rx="26.5" fill="white" stroke="#737373" stroke-width="2"/>
<path d="M32.7071 14.2929C32.3166 13.9024 31.6834 13.9024 31.2929 14.2929L24.9289 20.6569C24.5384 21.0474 24.5384 21.6805 24.9289 22.0711C25.3195 22.4616 25.9526 22.4616 26.3431 22.0711L32 16.4142L37.6569 22.0711C38.0474 22.4616 38.6805 22.4616 39.0711 22.0711C39.4616 21.6805 39.4616 21.0474 39.0711 20.6569L32.7071 14.2929ZM33 41L33 15L31 15L31 41L33 41Z" fill="#737373"/>
</g>
<defs>
<filter id="filter0_d_38_947" x="0" y="0" width="63" height="63" filterUnits="userSpaceOnUse" color-interpolation-filters="sRGB">
<feFlood flood-opacity="0" result="BackgroundImageFix"/>
<feColorMatrix in="SourceAlpha" type="matrix" values="0 0 0 0 0 0 0 0 0 0 0 0 0 0 0 0 0 0 127 0" result="hardAlpha"/>
<feOffset dy="4"/>
<feGaussianBlur stdDeviation="2"/>
<feComposite in2="hardAlpha" operator="out"/>
<feColorMatrix type="matrix" values="0 0 0 0 0 0 0 0 0 0 0 0 0 0 0 0 0 0 0.25 0"/>
<feBlend mode="normal" in2="BackgroundImageFix" result="effect1_dropShadow_38_947"/>
<feBlend mode="normal" in="SourceGraphic" in2="effect1_dropShadow_38_947" result="shape"/>
</filter>
</defs>
</svg>
