<svg width="27" height="26" viewBox="0 0 27 26" fill="none" xmlns="http://www.w3.org/2000/svg">
<path fill-rule="evenodd" clip-rule="evenodd" d="M2.52115 11.7647C2.52115 17.1571 6.89287 21.5287 12.286 21.5287C14.712 21.5287 16.9314 20.6441 18.6391 19.1798C18.6219 18.9035 18.7188 18.6214 18.93 18.4102C19.1413 18.1989 19.4235 18.1019 19.7 18.1192C21.1654 16.4114 22.0508 14.1914 22.0508 11.7647C22.0508 6.37235 17.6791 2.00073 12.286 2.00073C6.89287 2.00073 2.52115 6.37235 2.52115 11.7647ZM21.2813 19.3471C23.0093 17.2995 24.0508 14.6537 24.0508 11.7647C24.0508 5.26764 18.7835 0.000732422 12.286 0.000732422C5.78843 0.000732422 0.521147 5.26764 0.521147 11.7647C0.521147 18.2618 5.78843 23.5287 12.286 23.5287C15.1742 23.5287 17.8194 22.488 19.8668 20.7611L24.8124 25.7064C25.203 26.0969 25.8362 26.0969 26.2267 25.7064C26.6172 25.3158 26.6172 24.6826 26.2266 24.2921L21.2813 19.3471Z" fill="white"/>
</svg>
