<svg width="122" height="35" viewBox="0 0 122 35" fill="none" xmlns="http://www.w3.org/2000/svg">
<path d="M30.2099 14.51V10.925H31.5749V20.6H30.2099V15.635H27.6749V14.51H30.2099ZM20.6549 17.885C21.3149 17.655 21.8949 17.32 22.3949 16.88C22.8949 16.44 23.2799 15.94 23.5499 15.38C23.8199 14.81 23.9549 14.22 23.9549 13.61V13.055H21.0749V11.945H28.1549V13.055H25.3199V13.595C25.3199 14.155 25.4499 14.7 25.7099 15.23C25.9699 15.76 26.3349 16.235 26.8049 16.655C27.2849 17.065 27.8449 17.38 28.4849 17.6L27.8099 18.68C27.0799 18.42 26.4449 18.04 25.9049 17.54C25.3649 17.03 24.9499 16.44 24.6599 15.77C24.3699 16.51 23.9399 17.16 23.3699 17.72C22.8099 18.28 22.1399 18.7 21.3599 18.98L20.6549 17.885ZM23.0549 19.76H24.4199V22.745H31.9349V23.87H23.0549V19.76ZM42.8415 16.1V11.21H44.1165V23.48H42.8415V17.21H40.9365V16.1H42.8415ZM35.4015 20.45C36.2715 19.94 36.9465 19.18 37.4265 18.17C37.9065 17.16 38.1465 16.095 38.1465 14.975V14.42H35.7915V13.31H38.1465V11.375H39.4665V13.31H41.7915V14.42H39.4665V14.975C39.4665 16.055 39.7065 17.075 40.1865 18.035C40.6765 18.985 41.3565 19.7 42.2265 20.18L41.4615 21.2C40.8415 20.86 40.3065 20.39 39.8565 19.79C39.4165 19.19 39.0715 18.5 38.8215 17.72C38.5815 18.56 38.2365 19.31 37.7865 19.97C37.3465 20.62 36.8115 21.13 36.1815 21.5L35.4015 20.45ZM45.4965 10.91H46.8015V24.14H45.4965V10.91ZM55.7431 21.35V18.605H51.8281V11.825H53.1931V14.105H59.6731V11.825H61.0381V18.605H57.1081V21.35H62.4331V22.49H50.4481V21.35H55.7431ZM59.6731 17.51V15.215H53.1931V17.51H59.6731ZM76.2347 10.91V24.14H74.8547V10.91H76.2347ZM65.4647 20.645C67.1947 19.815 68.5047 18.8 69.3947 17.6C70.2847 16.4 70.7997 15.01 70.9397 13.43H66.0947V12.32H72.3197C72.3197 14.37 71.8347 16.19 70.8647 17.78C69.8947 19.37 68.3347 20.685 66.1847 21.725L65.4647 20.645Z" fill="white"/>
<path d="M101.351 23.255L100.436 22.34L105.161 17.615L100.436 12.905L101.351 11.975L106.991 17.615L101.351 23.255Z" fill="white"/>
<rect x="1" y="1" width="120" height="33" rx="16.5" stroke="white" stroke-width="2"/>
</svg>
