<svg width="100" height="62" viewBox="0 0 100 62" fill="none" xmlns="http://www.w3.org/2000/svg">
<rect width="100" height="62" rx="5" fill="#FF4A57"/>
<path d="M26.2575 26.85H29.6775V28.362H26.2575V26.85ZM26.2575 29.856H29.6775V31.386H26.2575V29.856ZM17.3115 25.212H25.9875V26.742H17.3115V25.212ZM17.0955 33.348L16.8975 31.782C19.5615 31.782 23.3415 31.746 26.3655 31.386L26.4735 32.772C23.3595 33.294 19.7235 33.348 17.0955 33.348ZM18.8055 26.454H20.6235V32.322H18.8055V26.454ZM22.6935 26.454H24.4935V32.322H22.6935V26.454ZM28.6155 24.042H30.5055V34.158H28.6155V24.042ZM25.0155 34.446C28.4715 34.446 30.5595 35.544 30.5595 37.47C30.5595 39.378 28.4715 40.476 25.0155 40.476C21.5595 40.476 19.4715 39.378 19.4715 37.47C19.4715 35.544 21.5595 34.446 25.0155 34.446ZM25.0155 35.904C22.6755 35.904 21.3435 36.444 21.3435 37.47C21.3435 38.478 22.6755 39.036 25.0155 39.036C27.3735 39.036 28.6875 38.478 28.6875 37.47C28.6875 36.444 27.3735 35.904 25.0155 35.904ZM43.2581 28.002H46.6781V29.55H43.2581V28.002ZM46.1741 24.042H48.0641V33.618H46.1741V24.042ZM37.2641 34.356H48.0641V40.296H37.2641V34.356ZM46.2101 35.85H39.1181V38.784H46.2101V35.85ZM38.4521 25.59H39.9821V26.796C39.9821 29.838 38.3081 32.52 35.3741 33.546L34.4201 32.052C36.9761 31.17 38.4521 29.01 38.4521 26.796V25.59ZM38.8301 25.59H40.3421V26.778C40.3421 28.812 41.7461 30.846 44.2121 31.71L43.2761 33.204C40.4321 32.214 38.8301 29.622 38.8301 26.778V25.59ZM34.9601 24.996H43.7801V26.508H34.9601V24.996ZM55.8667 25.734H57.4147V26.922C57.4147 29.982 55.7407 32.628 52.8247 33.618L51.8347 32.16C54.4267 31.278 55.8667 29.154 55.8667 26.922V25.734ZM56.2267 25.734H57.7567V26.922C57.7567 28.992 59.1427 31.008 61.6627 31.836L60.7087 33.312C57.8287 32.34 56.2267 29.802 56.2267 26.922V25.734ZM52.3747 25.104H61.2127V26.634H52.3747V25.104ZM62.9407 24.042H64.8307V33.942H62.9407V24.042ZM64.3087 28.218H67.1527V29.784H64.3087V28.218ZM54.0127 34.752H64.8307V40.494H62.9407V36.282H54.0127V34.752ZM73.5513 24.942H75.1173V26.526C75.1173 29.766 73.4613 32.502 70.4553 33.564L69.4653 32.034C72.1113 31.152 73.5513 28.938 73.5513 26.526V24.942ZM73.9113 24.942H75.4413V26.454C75.4413 28.722 76.8093 30.774 79.3113 31.602L78.3033 33.078C75.4773 32.052 73.9113 29.532 73.9113 26.454V24.942ZM81.2913 24.042H83.1813V33.726H81.2913V24.042ZM77.6913 34.194C81.1293 34.194 83.2353 35.346 83.2353 37.326C83.2353 39.324 81.1293 40.476 77.6913 40.476C74.2533 40.476 72.1473 39.324 72.1473 37.326C72.1473 35.346 74.2533 34.194 77.6913 34.194ZM77.6913 35.67C75.3693 35.67 74.0193 36.264 74.0193 37.326C74.0193 38.406 75.3693 39 77.6913 39C80.0313 39 81.3633 38.406 81.3633 37.326C81.3633 36.264 80.0313 35.67 77.6913 35.67ZM77.9613 27.3H81.6153V28.848H77.9613V27.3Z" fill="white"/>
</svg>
